<svg width="16" height="16" viewBox="0 0 16 16" fill="none" xmlns="http://www.w3.org/2000/svg">
<path d="M3.33301 6.66634H4.66634C5.99967 6.66634 6.66634 5.99967 6.66634 4.66634V3.33301C6.66634 1.99967 5.99967 1.33301 4.66634 1.33301H3.33301C1.99967 1.33301 1.33301 1.99967 1.33301 3.33301V4.66634C1.33301 5.99967 1.99967 6.66634 3.33301 6.66634Z" fill="#00ADAE" stroke="#FDFDFD" stroke-miterlimit="10" stroke-linecap="round" stroke-linejoin="round"/>
<path d="M11.333 6.66634H12.6663C13.9997 6.66634 14.6663 5.99967 14.6663 4.66634V3.33301C14.6663 1.99967 13.9997 1.33301 12.6663 1.33301H11.333C9.99967 1.33301 9.33301 1.99967 9.33301 3.33301V4.66634C9.33301 5.99967 9.99967 6.66634 11.333 6.66634Z" fill="#00ADAE" stroke="#FDFDFD" stroke-miterlimit="10" stroke-linecap="round" stroke-linejoin="round"/>
<path d="M11.333 14.6663H12.6663C13.9997 14.6663 14.6663 13.9997 14.6663 12.6663V11.333C14.6663 9.99967 13.9997 9.33301 12.6663 9.33301H11.333C9.99967 9.33301 9.33301 9.99967 9.33301 11.333V12.6663C9.33301 13.9997 9.99967 14.6663 11.333 14.6663Z" fill="#00ADAE" stroke="#FDFDFD" stroke-miterlimit="10" stroke-linecap="round" stroke-linejoin="round"/>
<path d="M3.33301 14.6663H4.66634C5.99967 14.6663 6.66634 13.9997 6.66634 12.6663V11.333C6.66634 9.99967 5.99967 9.33301 4.66634 9.33301H3.33301C1.99967 9.33301 1.33301 9.99967 1.33301 11.333V12.6663C1.33301 13.9997 1.99967 14.6663 3.33301 14.6663Z" fill="#00ADAE" stroke="#FDFDFD" stroke-miterlimit="10" stroke-linecap="round" stroke-linejoin="round"/>
</svg>
