<svg width="28" height="28" viewBox="0 0 28 28" fill="none" xmlns="http://www.w3.org/2000/svg">
<rect width="28" height="28" rx="3" fill="#E7F7EF"/>
<path d="M8.91477 18.5H7.80682L11.0114 9.77273H12.1023L15.3068 18.5H14.1989L11.5909 11.1534H11.5227L8.91477 18.5ZM9.32386 15.0909H13.7898V16.0284H9.32386V15.0909ZM16.5298 18.5V11.9545H17.5014V12.9432H17.5696C17.6889 12.6193 17.9048 12.3565 18.2173 12.1548C18.5298 11.9531 18.8821 11.8523 19.2741 11.8523C19.348 11.8523 19.4403 11.8537 19.5511 11.8565C19.6619 11.8594 19.7457 11.8636 19.8026 11.8693V12.892C19.7685 12.8835 19.6903 12.8707 19.5682 12.8537C19.4489 12.8338 19.3224 12.8239 19.1889 12.8239C18.8707 12.8239 18.5866 12.8906 18.3366 13.0241C18.0895 13.1548 17.8935 13.3366 17.7486 13.5696C17.6065 13.7997 17.5355 14.0625 17.5355 14.358V18.5H16.5298Z" fill="black"/>
</svg>
