<svg width="28" height="28" viewBox="0 0 28 28" fill="none" xmlns="http://www.w3.org/2000/svg">
<rect width="28" height="28" rx="3" fill="#E7F7EF"/>
<path fill-rule="evenodd" clip-rule="evenodd" d="M7.37302 10.0138C7.52734 9.11879 8.03854 8.40083 8.58917 7.8502C9.46896 6.97043 10.9243 7.075 11.6692 8.07152L12.8853 9.69824C13.555 10.594 13.4651 11.8456 12.6742 12.6364L12.5909 12.7198C12.298 13.0127 12.298 13.4876 12.5909 13.7805L14.2196 15.4091C14.5124 15.702 14.9873 15.702 15.2802 15.4091L15.3636 15.3258C16.1544 14.535 17.406 14.445 18.3018 15.1147L19.9408 16.3399C20.9308 17.0801 21.0347 18.526 20.1606 19.4001C19.6039 19.9568 18.8781 20.4763 17.9721 20.6328C16.304 20.9208 13.1069 20.9178 10.0946 17.9055C7.08085 14.8918 7.08612 11.6778 7.37302 10.0138ZM9.64982 8.91087C9.21773 9.34296 8.93303 9.79415 8.85121 10.2687C8.61984 11.6105 8.58588 14.2755 11.1552 16.8448C13.7258 19.4153 16.3758 19.3862 17.7169 19.1546C18.2005 19.0711 18.6595 18.7798 19.1 18.3394C19.3279 18.1114 19.3008 17.7343 19.0426 17.5413L17.4036 16.3161C17.1051 16.0928 16.6879 16.1228 16.4243 16.3864L16.3409 16.4698C15.4622 17.3485 14.0376 17.3485 13.1589 16.4698L11.5302 14.8411C10.6515 13.9625 10.6515 12.5378 11.5302 11.6591L11.6136 11.5758C11.8772 11.3122 11.9072 10.895 11.684 10.5964L10.4679 8.96965C10.27 8.70499 9.88348 8.67722 9.64982 8.91087Z" fill="#12131A"/>
</svg>
