<svg width="17" height="20" viewBox="0 0 17 20" fill="none" xmlns="http://www.w3.org/2000/svg">
<path fill-rule="evenodd" clip-rule="evenodd" d="M0.5 5C0.5 2.23858 2.73858 0 5.5 0H11.4999C14.2614 0 16.4999 2.23858 16.4999 5V16.9892C16.4999 19.5429 13.5126 20.9289 11.5627 19.2799L9.14574 17.2358C8.77297 16.9205 8.22703 16.9205 7.85425 17.2358L5.43724 19.2799C3.48734 20.9289 0.5 19.543 0.5 16.9892V5ZM5.5 2C3.84315 2 2.5 3.34315 2.5 5V16.9892C2.5 17.8405 3.49578 18.3025 4.14575 17.7528L6.56276 15.7087C7.68109 14.7629 9.31891 14.7629 10.4372 15.7087L12.8542 17.7528C13.5042 18.3024 14.4999 17.8405 14.4999 16.9892V5C14.4999 3.34315 13.1568 2 11.4999 2H5.5Z" fill="#12131A"/>
</svg>
