<svg width="18" height="18" viewBox="0 0 18 18" fill="none" xmlns="http://www.w3.org/2000/svg">
<path fill-rule="evenodd" clip-rule="evenodd" d="M12.165 1.93883C12.7497 1.35372 13.6977 1.35372 14.2825 1.93883L16.0615 3.71901C16.6462 4.30412 16.6462 5.25276 16.0615 5.83787L8.68364 13.2206C8.47551 13.4289 8.21065 13.5711 7.92217 13.6296L5.69125 14.0818C5.19932 14.1815 4.69017 14.028 4.33526 13.6728C3.98034 13.3177 3.82687 12.8082 3.92652 12.3159L4.37845 10.0835C4.43688 9.79485 4.57905 9.52982 4.78718 9.32155L12.165 1.93883ZM5.71669 11.0193L5.79704 10.6224L7.38369 12.2101L6.98704 12.2905L5.39398 12.6134L5.71669 11.0193ZM8.5386 11.2469L6.7596 9.46669L12.165 4.05769L13.2237 2.99826L13.944 3.71901L14.2825 4.05769L15.0027 4.77844L13.944 5.83787L8.5386 11.2469ZM2.24863 15.0017C1.83517 15.0017 1.5 15.3371 1.5 15.7509C1.5 16.1646 1.83518 16.5 2.24863 16.5L15.7241 16.5C16.1375 16.5 16.4727 16.1646 16.4727 15.7509C16.4727 15.3371 16.1375 15.0017 15.7241 15.0017L2.24863 15.0017Z" fill="black"/>
</svg>
