<svg width="16" height="16" viewBox="0 0 16 16" fill="none" xmlns="http://www.w3.org/2000/svg">
<path fill-rule="evenodd" clip-rule="evenodd" d="M11.165 0.938831C11.7497 0.353723 12.6977 0.353723 13.2825 0.938831L15.0615 2.71901C15.6462 3.30412 15.6462 4.25276 15.0615 4.83787L7.68364 12.2206C7.47551 12.4289 7.21065 12.5711 6.92217 12.6296L4.69125 13.0818C4.19932 13.1815 3.69017 13.028 3.33526 12.6728C2.98034 12.3177 2.82687 11.8082 2.92652 11.3159L3.37845 9.08352C3.43688 8.79485 3.57905 8.52982 3.78718 8.32155L11.165 0.938831ZM4.71669 10.0193L4.79704 9.62236L6.38369 11.2101L5.98704 11.2905L4.39398 11.6134L4.71669 10.0193ZM7.5386 10.2469L5.7596 8.46669L11.165 3.05769L12.2237 1.99826L12.944 2.71901L13.2825 3.05769L14.0027 3.77844L12.944 4.83787L7.5386 10.2469ZM1.24863 14.0017C0.835175 14.0017 0.5 14.3371 0.5 14.7509C0.5 15.1646 0.835175 15.5 1.24863 15.5L14.7241 15.5C15.1375 15.5 15.4727 15.1646 15.4727 14.7509C15.4727 14.3371 15.1375 14.0017 14.7241 14.0017L1.24863 14.0017Z" fill="black"/>
</svg>
