<svg width="28" height="28" viewBox="0 0 28 28" fill="none" xmlns="http://www.w3.org/2000/svg">
<rect width="28" height="28" rx="3" fill="#E7F7EF"/>
<path d="M7.55682 18.5V9.77273H12.8239V10.7102H8.61364V13.6591H12.5511V14.5966H8.61364V17.5625H12.892V18.5H7.55682ZM15.598 14.5625V18.5H14.5923V11.9545H15.5639V12.9773H15.6491C15.8026 12.6449 16.0355 12.3778 16.348 12.1761C16.6605 11.9716 17.0639 11.8693 17.5582 11.8693C18.0014 11.8693 18.3892 11.9602 18.7216 12.142C19.054 12.321 19.3125 12.5938 19.4972 12.9602C19.6818 13.3239 19.7741 13.7841 19.7741 14.3409V18.5H18.7685V14.4091C18.7685 13.8949 18.6349 13.4943 18.3679 13.2074C18.1009 12.9176 17.7344 12.7727 17.2685 12.7727C16.9474 12.7727 16.6605 12.8423 16.4077 12.9815C16.1577 13.1207 15.9602 13.3239 15.8153 13.5909C15.6705 13.858 15.598 14.1818 15.598 14.5625Z" fill="black"/>
</svg>
