<svg width="28" height="28" viewBox="0 0 28 28" fill="none" xmlns="http://www.w3.org/2000/svg">
<rect width="28" height="28" rx="3" fill="#E7F7EF"/>
<path d="M14.0003 20.8359C13.7807 20.8359 13.5682 20.8075 13.3912 20.7438C10.6853 19.8159 6.38574 16.5221 6.38574 11.6559C6.38574 9.17671 8.39033 7.16504 10.8553 7.16504C12.0524 7.16504 13.1716 7.63254 14.0003 8.46837C14.8291 7.63254 15.9482 7.16504 17.1453 7.16504C19.6103 7.16504 21.6149 9.18379 21.6149 11.6559C21.6149 16.5292 17.3153 19.8159 14.6095 20.7438C14.4324 20.8075 14.2199 20.8359 14.0003 20.8359ZM10.8553 8.22754C8.97824 8.22754 7.44824 9.76462 7.44824 11.6559C7.44824 16.4938 12.102 19.1855 13.7382 19.745C13.8657 19.7875 14.142 19.7875 14.2695 19.745C15.8987 19.1855 20.5595 16.5009 20.5595 11.6559C20.5595 9.76462 19.0295 8.22754 17.1524 8.22754C16.0757 8.22754 15.077 8.73046 14.4324 9.60171C14.2341 9.87087 13.7807 9.87087 13.5824 9.60171C12.9237 8.72337 11.932 8.22754 10.8553 8.22754Z" fill="black"/>
</svg>
