<svg width="25" height="24" viewBox="0 0 25 24" fill="none" xmlns="http://www.w3.org/2000/svg">
<path fill-rule="evenodd" clip-rule="evenodd" d="M6.5 6C7.05229 6 7.5 6.44772 7.5 7V15.2C7.5 16.0566 7.50078 16.6389 7.53755 17.089C7.57337 17.5274 7.6383 17.7516 7.71799 17.908C7.90973 18.2843 8.2157 18.5903 8.59202 18.782C8.74842 18.8617 8.97262 18.9266 9.41104 18.9624C9.86113 18.9992 10.4434 19 11.3 19H13.7C14.5566 19 15.1389 18.9992 15.589 18.9624C16.0274 18.9266 16.2516 18.8617 16.408 18.782C16.7843 18.5903 17.0903 18.2843 17.282 17.908C17.3617 17.7516 17.4266 17.5274 17.4624 17.089C17.4992 16.6389 17.5 16.0566 17.5 15.2V7C17.5 6.44772 17.9477 6 18.5 6C19.0523 6 19.5 6.44772 19.5 7V15.2413C19.5 16.0463 19.5 16.7106 19.4558 17.2518C19.4099 17.8139 19.3113 18.3306 19.064 18.816C18.6805 19.5686 18.0686 20.1805 17.316 20.564C16.8306 20.8113 16.3139 20.9099 15.7518 20.9558C15.2106 21 14.5463 21 13.7413 21H11.2587C10.4537 21 9.78938 21 9.24817 20.9558C8.68608 20.9099 8.16937 20.8113 7.68404 20.564C6.93139 20.1805 6.31947 19.5686 5.93597 18.816C5.68868 18.3306 5.59012 17.8139 5.54419 17.2518C5.49998 16.7106 5.49999 16.0463 5.5 15.2413L5.5 7C5.5 6.44772 5.94772 6 6.5 6Z" fill="#00ADAE"/>
<path fill-rule="evenodd" clip-rule="evenodd" d="M12.5 15C11.9477 15 11.5 15.4477 11.5 16V19H9.5V16C9.5 14.3431 10.8431 13 12.5 13C14.1569 13 15.5 14.3431 15.5 16V19H13.5V16C13.5 15.4477 13.0523 15 12.5 15Z" fill="#00ADAE"/>
<path fill-rule="evenodd" clip-rule="evenodd" d="M3.60579 8.44699C3.85278 8.94097 4.45345 9.1412 4.94743 8.89421L12.5002 5.11782L20.053 8.89421C20.547 9.1412 21.1477 8.94097 21.3946 8.44699C21.6416 7.95302 21.4414 7.35234 20.9474 7.10535L12.9474 3.10535C12.6659 2.96459 12.3345 2.96459 12.053 3.10535L4.05301 7.10535C3.55903 7.35234 3.3588 7.95302 3.60579 8.44699Z" fill="#00ADAE"/>
</svg>
