<svg width="28" height="28" viewBox="0 0 28 28" fill="none" xmlns="http://www.w3.org/2000/svg">
<rect width="28" height="28" rx="3" fill="#E7F7EF"/>
<path fill-rule="evenodd" clip-rule="evenodd" d="M5.58301 13.9997C5.58301 18.3719 9.12742 21.9163 13.4997 21.9163C17.8719 21.9163 21.4163 18.3719 21.4163 13.9997C21.4163 9.62742 17.8719 6.08301 13.4997 6.08301C9.12742 6.08301 5.58301 9.62742 5.58301 13.9997ZM13.0575 7.68154C13.2036 7.67146 13.351 7.66634 13.4997 7.66634C13.6483 7.66634 13.7958 7.67146 13.9419 7.68154C13.9689 7.71583 13.9981 7.75365 14.0291 7.79499C14.2265 8.05825 14.4974 8.46333 14.7708 9.00997C15.2497 9.9679 15.7389 11.3656 15.8509 13.208L11.1485 13.208C11.2605 11.3656 11.7496 9.9679 12.2286 9.00997C12.5019 8.46333 12.7728 8.05825 12.9702 7.79499C13.0013 7.75365 13.0304 7.71583 13.0575 7.68154ZM9.56253 14.7913C9.6772 16.9146 10.2395 18.5517 10.8124 19.6975L10.838 19.7482C8.89815 18.8485 7.49024 16.9959 7.21534 14.7913H9.56253ZM9.56253 13.208H7.21534C7.49024 11.0035 8.89815 9.15083 10.838 8.25114L10.8124 8.30188C10.2395 9.44763 9.6772 11.0847 9.56253 13.208ZM11.1485 14.7913L15.8509 14.7913C15.7389 16.6338 15.2497 18.0315 14.7708 18.9894C14.4974 19.536 14.2265 19.9411 14.0291 20.2044C13.9981 20.2457 13.9689 20.2835 13.9419 20.3178C13.7958 20.3279 13.6483 20.333 13.4997 20.333C13.351 20.333 13.2036 20.3279 13.0575 20.3178C13.0304 20.2835 13.0013 20.2457 12.9702 20.2044C12.7728 19.9411 12.5019 19.536 12.2286 18.9894C11.7496 18.0315 11.2605 16.6338 11.1485 14.7913ZM17.4368 14.7913C17.3221 16.9146 16.7598 18.5517 16.1869 19.6975L16.1614 19.7482C18.1012 18.8485 19.5091 16.9959 19.784 14.7913H17.4368ZM19.784 13.208C19.5091 11.0035 18.1012 9.15083 16.1614 8.25114L16.1869 8.30188C16.7598 9.44763 17.3221 11.0847 17.4368 13.208H19.784Z" fill="black"/>
</svg>
