<svg width="25" height="24" viewBox="0 0 25 24" fill="none" xmlns="http://www.w3.org/2000/svg">
<path fill-rule="evenodd" clip-rule="evenodd" d="M16.8013 11.8553L12.5 18.9501L8.19873 11.8553C6.11249 8.41407 8.53643 3.97091 12.5 3.97091C16.4636 3.97091 18.8875 8.41407 16.8013 11.8553ZM6.55757 12.8927C3.67532 8.13846 7.02412 2 12.5 2C17.9759 2 21.3247 8.13846 18.4424 12.8927L13.1427 21.6344C12.8472 22.1219 12.1528 22.1219 11.8573 21.6344L6.55757 12.8927ZM12.5002 6.92727C11.4342 6.92727 10.57 7.80967 10.57 8.89818C10.57 9.98668 11.4342 10.8691 12.5002 10.8691C13.5662 10.8691 14.4304 9.98668 14.4304 8.89818C14.4304 7.80967 13.5662 6.92727 12.5002 6.92727Z" fill="black"/>
</svg>
