<svg width="28" height="28" viewBox="0 0 28 28" fill="none" xmlns="http://www.w3.org/2000/svg">
<rect width="28" height="28" rx="3" fill="#E7F7EF"/>
<path fill-rule="evenodd" clip-rule="evenodd" d="M10 8C10 5.79086 11.7909 4 14 4C16.2091 4 18 5.79086 18 8V13H16V8C16 6.89543 15.1046 6 14 6C12.8954 6 12 6.89543 12 8V13H10V8Z" fill="#12131A"/>
<path fill-rule="evenodd" clip-rule="evenodd" d="M11.7587 11H16.2413C17.0463 11 17.7106 11 18.2518 11.0442C18.8139 11.0901 19.3306 11.1887 19.816 11.436C20.5686 11.8195 21.1805 12.4314 21.564 13.184C21.8113 13.6694 21.9099 14.1861 21.9558 14.7482C22 15.2894 22 15.9537 22 16.7587V18.2413C22 19.0463 22 19.7106 21.9558 20.2518C21.9099 20.8139 21.8113 21.3306 21.564 21.816C21.1805 22.5686 20.5686 23.1805 19.816 23.564C19.3306 23.8113 18.8139 23.9099 18.2518 23.9558C17.7106 24 17.0463 24 16.2413 24H11.7587C10.9537 24 10.2894 24 9.74818 23.9558C9.18608 23.9099 8.66937 23.8113 8.18404 23.564C7.43139 23.1805 6.81947 22.5686 6.43597 21.816C6.18868 21.3306 6.09012 20.8139 6.04419 20.2518C5.99998 19.7106 5.99999 19.0463 6 18.2413V16.7587C5.99999 15.9537 5.99998 15.2894 6.04419 14.7482C6.09012 14.1861 6.18868 13.6694 6.43597 13.184C6.81947 12.4314 7.43139 11.8195 8.18404 11.436C8.66937 11.1887 9.18608 11.0901 9.74817 11.0442C10.2894 11 10.9537 11 11.7587 11ZM9.91104 13.0376C9.47262 13.0734 9.24842 13.1383 9.09202 13.218C8.7157 13.4097 8.40973 13.7157 8.21799 14.092C8.1383 14.2484 8.07337 14.4726 8.03755 14.911C8.00078 15.3611 8 15.9434 8 16.8V18.2C8 19.0566 8.00078 19.6389 8.03755 20.089C8.07337 20.5274 8.1383 20.7516 8.21799 20.908C8.40973 21.2843 8.7157 21.5903 9.09202 21.782C9.24842 21.8617 9.47262 21.9266 9.91104 21.9624C10.3611 21.9992 10.9434 22 11.8 22H16.2C17.0566 22 17.6389 21.9992 18.089 21.9624C18.5274 21.9266 18.7516 21.8617 18.908 21.782C19.2843 21.5903 19.5903 21.2843 19.782 20.908C19.8617 20.7516 19.9266 20.5274 19.9624 20.089C19.9992 19.6389 20 19.0566 20 18.2V16.8C20 15.9434 19.9992 15.3611 19.9624 14.911C19.9266 14.4726 19.8617 14.2484 19.782 14.092C19.5903 13.7157 19.2843 13.4097 18.908 13.218C18.7516 13.1383 18.5274 13.0734 18.089 13.0376C17.6389 13.0008 17.0566 13 16.2 13H11.8C10.9434 13 10.3611 13.0008 9.91104 13.0376Z" fill="#12131A"/>
<path d="M13 18C13 17.4477 13.4477 17 14 17C14.5523 17 15 17.4477 15 18V19C15 19.5523 14.5523 20 14 20C13.4477 20 13 19.5523 13 19V18Z" fill="#12131A"/>
</svg>
