<svg width="20" height="20" viewBox="0 0 20 20" fill="none" xmlns="http://www.w3.org/2000/svg">
<path fill-rule="evenodd" clip-rule="evenodd" d="M14.3771 13.8814C14.0741 14.2278 13.5476 14.2629 13.2012 13.9598C12.8549 13.6568 12.8198 13.1303 13.1229 12.7839L14.8302 10.8327L6.66667 10.8327C6.20643 10.8327 5.83333 10.4596 5.83333 9.99935C5.83333 9.53911 6.20643 9.16602 6.66667 9.16602L14.8302 9.16602L13.1229 7.21477C12.8198 6.86841 12.8549 6.34194 13.2012 6.03887C13.5476 5.7358 14.0741 5.7709 14.3771 6.11726L17.2938 9.45059C17.5687 9.76478 17.5687 10.2339 17.2938 10.5481L14.3771 13.8814ZM6.66667 3.33268C7.12691 3.33268 7.5 2.95959 7.5 2.49935C7.5 2.03911 7.12691 1.66602 6.66667 1.66602L4.16667 1.66602C3.24619 1.66602 2.5 2.41221 2.5 3.33268L2.5 16.666C2.5 17.5865 3.24619 18.3327 4.16667 18.3327L6.66667 18.3327C7.12691 18.3327 7.5 17.9596 7.5 17.4994C7.5 17.0391 7.12691 16.666 6.66667 16.666L4.16667 16.666L4.16667 3.33268L6.66667 3.33268Z" fill="black"/>
</svg>
