<svg width="102" height="41" viewBox="0 0 102 41" fill="none" xmlns="http://www.w3.org/2000/svg">
<path d="M53.0017 28.7808C52.912 28.7808 52.8205 28.7556 52.7361 28.7054C42.5964 22.4553 32.7852 21.5471 26.3431 21.8828C19.3679 22.2489 14.7513 24.1049 14.7064 24.1229C14.4479 24.2288 14.1535 24.1049 14.0476 23.8464C13.9417 23.588 14.0656 23.2936 14.3241 23.1877C14.5179 23.1087 19.1453 21.2473 26.291 20.874C32.8767 20.5294 42.9051 21.4591 53.2674 27.8456C53.5043 27.9928 53.5779 28.3033 53.4325 28.5402C53.3356 28.6946 53.1705 28.7808 53.0017 28.7808Z" fill="#00ADAE"/>
<path d="M35.9326 40.0865C35.9326 40.3504 35.8087 40.4742 35.5449 40.4742H33.1504C32.8865 40.4742 32.7627 40.3504 32.7627 40.0865V27.9024C32.7627 27.6385 32.8865 27.5146 33.1504 27.5146H43.0801C43.344 27.5146 43.4678 27.6385 43.4678 27.9024V29.945C43.4678 30.2089 43.344 30.3327 43.0801 30.3327H35.9326V32.5854H42.5524C42.8162 32.5854 42.9401 32.7092 42.9401 32.9731V35.0158C42.9401 35.2796 42.8162 35.4035 42.5524 35.4035H35.9326V40.0865Z" fill="#00ADAE"/>
<path d="M47.2197 27.5146C47.4835 27.5146 47.6074 27.6385 47.6074 27.9024V40.0865C47.6074 40.3504 47.4835 40.4742 47.2197 40.4742H44.8252C44.5614 40.4742 44.4375 40.3504 44.4375 40.0865V27.9024C44.4375 27.6385 44.5614 27.5146 44.8252 27.5146H47.2197Z" fill="#00ADAE"/>
<path d="M57.4112 40.4724C57.1473 40.4545 57.0235 40.3324 57.0235 40.0847V34.0644C57.0235 32.7793 56.7955 31.8459 56.336 31.2482C55.8783 30.6325 55.2626 30.3327 54.4693 30.3327H52.0927V40.0865C52.0748 40.3504 51.9527 40.4742 51.705 40.4742H49.3106C49.0467 40.4563 48.9229 40.3342 48.9229 40.0865V27.9024C48.9408 27.6385 49.0629 27.5146 49.3106 27.5146H54.4693C56.3881 27.5146 57.8151 28.0783 58.7646 29.2055C59.7159 30.3148 60.1916 31.9338 60.1916 34.0644V40.0865C60.1736 40.3504 60.0516 40.4742 59.8039 40.4742H57.4112V40.4724Z" fill="#00ADAE"/>
<path d="M61.4258 40.0865V27.9024C61.4258 27.6385 61.5496 27.5146 61.8135 27.5146H67.2881C69.2769 27.5146 70.756 28.0783 71.7432 29.2055C72.7286 30.3148 73.2222 31.9177 73.2222 34.0303C73.2222 36.1071 72.7286 37.71 71.7252 38.8193C70.7219 39.9286 69.2428 40.4742 67.2881 40.4742H61.8135C61.5478 40.4724 61.4258 40.3504 61.4258 40.0865ZM67.2881 37.6561C68.1515 37.6561 68.803 37.3223 69.2249 36.6707C69.6646 36.0012 69.8764 35.0678 69.8764 33.8544C69.8764 32.6392 69.6485 31.7597 69.1728 31.1782C68.6971 30.6145 68.0815 30.3327 67.2881 30.3327H64.5939V37.6561H67.2881Z" fill="#00ADAE"/>
<path d="M80.722 32.5854C82.3949 32.5854 83.6101 32.9372 84.4196 33.6247C85.1951 34.3121 85.5989 35.2976 85.5989 36.5648C85.5989 37.8321 85.1933 38.8013 84.3496 39.469C83.5401 40.1386 82.3249 40.4724 80.722 40.4724H74.542C74.2781 40.4724 74.1543 40.3486 74.1543 40.0847V38.0421C74.1543 37.7782 74.2781 37.6544 74.542 37.6544H80.722C81.7434 37.6544 82.2531 37.2846 82.2531 36.563C82.2531 35.7876 81.7434 35.4017 80.722 35.4017H79.0312C77.3583 35.4017 76.1449 35.0499 75.3336 34.3624C74.5582 33.6749 74.1543 32.6895 74.1543 31.4223C74.1543 30.155 74.56 29.1858 75.4036 28.518C76.2131 27.8485 77.4283 27.5146 79.0312 27.5146H84.8594C85.1233 27.5146 85.2471 27.6385 85.2471 27.9024V29.945C85.2471 30.2089 85.1233 30.3327 84.8594 30.3327H79.0312C78.0099 30.3327 77.5001 30.7025 77.5001 31.4241C77.5001 32.1995 78.0099 32.5854 79.0312 32.5854H80.722Z" fill="#00ADAE"/>
<path d="M26.6695 21.8123L22.6865 19.1827C30.6184 7.17084 43.9352 0 58.311 0C72.5055 0 85.7289 7.03084 93.686 18.8075L89.7317 21.4784C82.6649 11.0174 70.9188 4.77099 58.3128 4.77099C45.5435 4.77278 33.7147 11.1431 26.6695 21.8123Z" fill="#00ADAE"/>
<path d="M93.5069 1.31212L74.3994 20.5552L79.2191 25.3409L98.3266 6.09784L93.5069 1.31212Z" fill="#00ADAE"/>
<path d="M96.655 10.3731L83.1846 23.9775L88.011 28.7565L101.481 15.152L96.655 10.3731Z" fill="#00ADAE"/>
<path d="M23.1361 1.31438L18.3164 6.1001L37.4239 25.3432L42.2436 20.5574L23.1361 1.31438Z" fill="#00ADAE"/>
<path d="M19.9915 10.37L15.165 15.1489L28.6355 28.7534L33.4619 23.9744L19.9915 10.37Z" fill="#00ADAE"/>
<path d="M55.3858 12.0659L54.998 7.30926C56.7768 7.16387 59.437 7.1549 61.4635 7.28772L61.1529 12.0497C59.3598 11.9331 56.9348 11.9402 55.3858 12.0659Z" fill="#00ADAE"/>
<path d="M75.2904 17.0288C74.9942 16.8368 74.4665 16.5101 74.165 16.3288C70.6882 14.2287 66.89 12.8609 62.8604 12.2632L63.5604 7.54248C67.9903 8.19943 72.178 9.65873 76.0335 11.8899C76.5846 12.2076 77.728 13.0081 78.5375 13.534L75.2904 17.0288Z" fill="#00ADAE"/>
<path d="M53.6275 12.1286C50.7915 12.5612 47.9878 13.333 45.3043 14.5518C45.2307 14.5823 45.1589 14.6164 45.0871 14.6487C43.7104 15.2859 42.3678 16.0398 41.0665 16.9265L37.9325 13.5897L37.9307 13.5879C38.5194 13.0386 39.2302 12.554 39.6215 12.3099C40.3915 11.8324 41.1741 11.3873 41.9711 10.9727C45.3869 9.19385 49.0504 7.99841 52.906 7.40967L53.6275 12.1286Z" fill="#00ADAE"/>
<path d="M48.9266 21.0588L46.5752 16.9053C48.9122 15.5824 51.4521 14.8123 54.1266 14.6167L54.473 19.3769C52.5111 19.5205 50.6444 20.0859 48.9266 21.0588Z" fill="#00ADAE"/>
<path d="M55.2109 25.1905C53.4518 25.4669 51.7358 25.9192 50.0899 26.5313L41.0684 16.9265L37.9344 13.5897L37.9326 13.5879C38.5214 13.0386 39.2322 12.554 39.6235 12.3099C40.3935 11.8324 41.1761 11.3873 41.9731 10.9727L45.3045 14.55L55.2109 25.1905Z" fill="#00ADAE"/>
<path d="M72.2782 12.7601L67.0477 26.5202C65.5076 25.9907 63.9119 25.6012 62.2803 25.3625L68.0277 10.5864L72.2782 12.7601Z" fill="#00ADAE"/>
<path d="M60.6956 13.3275V25.1778C59.931 25.1096 59.1574 25.0773 58.3801 25.0773C57.5545 25.0773 56.736 25.1149 55.9229 25.1903V13.3257H60.6956V13.3275Z" fill="#00ADAE"/>
<path d="M25.2129 15.6787L28.6341 19.1017L28.9643 18.6906L25.2129 15.6787Z" fill="#00ADAE"/>
<path d="M31.377 9.56543L34.7658 12.9705L35.2559 12.5756L31.377 9.56543Z" fill="#00ADAE"/>
<path d="M91.3826 15.665L87.7227 18.6949L88.0206 19.1149L91.3826 15.665Z" fill="#00ADAE"/>
<path d="M85.2915 9.60107L81.4629 12.6256L81.908 13.0079L85.2915 9.60107Z" fill="#00ADAE"/>
<path d="M5.90521 14.6098C6.18343 14.6062 6.45447 14.6187 6.72192 14.6654C6.80808 14.6798 6.89962 14.6744 6.98578 14.6869C7.06296 14.6995 7.13476 14.73 7.21194 14.7462C7.51349 14.8054 7.80069 14.9023 8.07711 15.0388C8.17045 15.0854 8.27815 15.1088 8.38046 15.1375C8.54021 15.1824 8.69996 15.2272 8.85971 15.2649C9.01767 15.3026 9.17921 15.3242 9.33717 15.3619C9.53282 15.4103 9.73027 15.4588 9.92053 15.5252C10.0587 15.5719 10.1826 15.6544 10.3208 15.7065C10.5847 15.8052 10.7911 15.9829 10.9903 16.1696C11.0334 16.2091 11.0514 16.2719 11.0944 16.3132C11.1501 16.367 11.2093 16.4227 11.2793 16.4532C11.3457 16.4819 11.3798 16.4137 11.405 16.3616C11.448 16.2737 11.4768 16.1786 11.5252 16.0924C11.6078 15.947 11.6921 15.798 11.7945 15.667C11.8914 15.5449 12.0099 15.439 12.1265 15.3349C12.1768 15.2901 12.2414 15.2613 12.3024 15.229C12.4819 15.1357 12.6704 15.1106 12.8714 15.1231C13.0061 15.1321 13.1281 15.1698 13.2538 15.2129C13.532 15.3098 13.7258 15.5019 13.8533 15.7585C13.934 15.9201 14.0023 16.0906 14.0507 16.2647C14.1117 16.4801 14.0507 16.6758 13.8999 16.8427C13.8264 16.9235 13.7689 17.0186 13.6989 17.103C13.6522 17.1568 13.5966 17.2035 13.5445 17.2519C13.514 17.2807 13.4817 17.3094 13.4476 17.3345C13.3597 17.4027 13.3238 17.4943 13.304 17.6002C13.2986 17.6307 13.2897 17.6612 13.2771 17.6899C13.225 17.7976 13.2197 17.7958 13.0994 17.7797C13.015 17.7689 12.9396 17.7868 12.8643 17.8407C12.7476 17.9268 12.6291 18.0166 12.473 18.022C12.4406 18.0238 12.4083 18.0381 12.376 18.0507C12.1732 18.1351 12.1337 18.0722 12.0655 17.8963C12.0404 17.8353 12.0224 17.7707 11.9991 17.7079C11.9793 17.6558 11.947 17.6432 11.9004 17.6809C11.8501 17.7204 11.7963 17.7581 11.746 17.7958C11.7155 17.8191 11.7119 17.8407 11.7406 17.873C11.807 17.9502 11.877 18.0274 11.9345 18.1117C11.9793 18.1781 12.0134 18.2535 12.0458 18.3271C12.0817 18.4133 12.1068 18.503 12.1409 18.591C12.1822 18.6969 12.2288 18.8028 12.2737 18.9069C12.3096 18.9895 12.3437 19.0738 12.3868 19.1528C12.446 19.2605 12.4317 19.309 12.3222 19.352C12.2181 19.3915 12.1965 19.4633 12.2558 19.5567C12.3222 19.6608 12.3868 19.7649 12.4532 19.869C12.4981 19.939 12.5681 19.9641 12.6542 19.9336C12.805 19.8798 12.9558 19.8223 13.1048 19.7649C13.2573 19.7074 13.4117 19.6554 13.5607 19.589C13.7258 19.5154 13.8802 19.4184 13.9592 19.2461C13.9843 19.1941 13.9915 19.1223 13.9789 19.0666C13.9233 18.8297 13.9484 18.6071 14.0543 18.3881C14.0992 18.2966 14.1189 18.1925 14.153 18.0956C14.1746 18.0345 14.232 18.0238 14.2805 18.0704C14.2912 18.0812 14.2984 18.092 14.3092 18.1027C14.3595 18.1458 14.4205 18.1315 14.4348 18.0668C14.4492 18.0094 14.4564 17.9484 14.46 17.8891C14.4672 17.7509 14.5731 17.654 14.7095 17.6576C14.7813 17.6594 14.8261 17.7007 14.8656 17.7491C15.0254 17.952 15.0828 18.1853 15.0218 18.4348C14.9805 18.6053 14.9231 18.7687 14.8387 18.9284C14.7041 19.1833 14.4995 19.379 14.3289 19.6033C14.2302 19.7326 14.1423 19.869 14.0489 20.0018C13.961 20.1275 13.8802 20.2585 13.7833 20.3752C13.6433 20.5439 13.4943 20.7054 13.3381 20.8616C13.2591 20.9424 13.1532 20.9962 13.0653 21.068C12.9271 21.1829 12.7619 21.2475 12.6004 21.3157C12.4155 21.3947 12.2899 21.3696 12.1606 21.2278C12.0637 21.1219 11.9704 21.0124 11.8788 20.9029C11.7729 20.7772 11.6652 20.6516 11.5629 20.5223C11.4265 20.35 11.2955 20.1741 11.1555 20.0054C11.0765 19.9103 11.0406 19.9121 10.9454 19.9964C10.757 20.1634 10.5685 20.3285 10.3836 20.499C10.1844 20.6839 9.99053 20.8742 9.79488 21.0608C9.56872 21.278 9.34255 21.4934 9.11639 21.7124C9.09485 21.7339 9.07511 21.7591 9.05536 21.7842C8.99792 21.8578 9.01767 21.9278 9.10023 21.9745C9.26537 22.066 9.42692 22.1611 9.59026 22.2563C9.72667 22.3353 9.8613 22.4142 9.99592 22.4968C10.1072 22.565 10.2185 22.635 10.328 22.7086C10.5165 22.836 10.7031 22.9635 10.888 23.0945C10.976 23.1573 11.0621 23.222 11.1429 23.2938C11.3511 23.4768 11.5593 23.6599 11.7586 23.852C11.8752 23.9651 11.9811 24.0907 12.0817 24.2182C12.1193 24.2666 12.1355 24.3402 12.1409 24.4048C12.1535 24.5556 12.1158 24.6938 12.0045 24.8051C11.9416 24.8679 11.8896 24.9397 11.8232 24.9972C11.7568 25.0528 11.6796 25.0977 11.6042 25.1426C11.4803 25.2162 11.3565 25.2915 11.2291 25.358C11.1124 25.419 10.9885 25.4692 10.8683 25.5267C10.7911 25.5644 10.7175 25.6075 10.6421 25.6469C10.5865 25.6739 10.529 25.6972 10.4734 25.7223C10.3495 25.7816 10.2239 25.839 10.1 25.9018C9.99412 25.9557 9.88822 26.0113 9.78411 26.0688C9.66565 26.1334 9.54538 26.1998 9.42871 26.268C9.26537 26.3613 9.10203 26.4565 8.94048 26.5534C8.83997 26.6126 8.73227 26.6665 8.64432 26.7401C8.51867 26.846 8.43969 26.9842 8.4002 27.1493C8.34995 27.3611 8.32481 27.5747 8.33199 27.7919C8.34097 28.0091 8.40379 28.2083 8.53662 28.3843C8.57431 28.4327 8.59585 28.4919 8.63175 28.5422C8.66227 28.5871 8.69817 28.6266 8.73407 28.6661C8.80945 28.745 8.79509 28.8886 8.70355 28.9479C8.65149 28.9838 8.59765 29.0071 8.53123 28.9892C8.38584 28.9497 8.24404 28.9102 8.10583 28.8438C7.82941 28.7091 7.61222 28.5009 7.38964 28.2963C7.17604 28.1006 6.96065 27.905 6.74884 27.7093C6.63397 27.6034 6.53704 27.4796 6.49396 27.327C6.46165 27.2193 6.44729 27.1188 6.48857 26.995C6.54242 26.8262 6.65012 26.7131 6.79013 26.6683C6.99475 26.6019 7.10963 26.4439 7.25502 26.3147C7.43093 26.1585 7.60504 26.0006 7.78274 25.848C7.91736 25.7331 8.05557 25.6218 8.19737 25.5159C8.3302 25.4172 8.4702 25.3239 8.60842 25.2323C8.72509 25.1551 8.84535 25.0797 8.96741 25.0115C9.06254 24.9577 9.16126 24.911 9.26178 24.8661C9.38743 24.8087 9.51487 24.7549 9.64231 24.7028C9.69975 24.6795 9.76078 24.6651 9.82001 24.6489C9.84335 24.6418 9.87207 24.6454 9.88822 24.631C9.91873 24.6077 9.94027 24.5754 9.9672 24.5484C9.94027 24.5323 9.91515 24.5089 9.88643 24.5036C9.68719 24.4659 9.48615 24.4318 9.28512 24.3977C9.06793 24.36 8.85253 24.3223 8.63534 24.2882C8.5438 24.2738 8.44867 24.2738 8.35712 24.2541C8.28353 24.2379 8.21173 24.2074 8.14711 24.1697C8.05557 24.1158 7.97121 24.0476 7.88326 23.9884C7.82043 23.9471 7.69658 23.9543 7.63017 24.0064C7.54042 24.0782 7.45247 24.1535 7.36631 24.2289C7.15091 24.4192 6.93552 24.6113 6.72192 24.8015C6.71294 24.8087 6.70577 24.8195 6.69679 24.8267C6.45986 25.0403 6.22113 25.2503 5.98599 25.4657C5.78675 25.6487 5.59289 25.8408 5.39365 26.0239C5.20698 26.1962 5.0203 26.3685 4.82645 26.5301C4.76362 26.5821 4.67746 26.6037 4.60387 26.6431C4.42258 26.7401 4.25027 26.8532 4.0977 26.9914C3.99179 27.0865 3.88589 27.1852 3.77819 27.2786C3.74768 27.3037 3.70639 27.3163 3.67767 27.3432C3.5969 27.415 3.52331 27.4922 3.44254 27.5622C3.24689 27.7327 3.04585 27.8996 2.8502 28.0719C2.64558 28.2532 2.43557 28.4309 2.24171 28.623C2.11606 28.7468 2.00119 28.8868 1.90785 29.0358C1.82708 29.1633 1.77861 29.3122 1.71938 29.4522C1.65297 29.6102 1.59014 29.7718 1.52373 29.9315C1.48783 30.0177 1.45193 30.1038 1.41424 30.1882C1.39449 30.2348 1.36577 30.2761 1.34782 30.3228C1.30654 30.4341 1.25987 30.5454 1.23115 30.6603C1.19884 30.7949 1.1791 30.9349 1.23115 31.0713C1.26526 31.1575 1.29936 31.2436 1.34244 31.3262C1.41603 31.468 1.41783 31.4895 1.29936 31.5954C1.19166 31.6941 1.06063 31.7372 0.920625 31.687C0.838057 31.6565 0.759079 31.6026 0.690871 31.547C0.567019 31.4447 0.482656 31.3082 0.416243 31.1646C0.369574 31.0623 0.342649 30.951 0.31752 30.8415C0.252902 30.5669 0.190078 30.2905 0.13264 30.0141C0.082381 29.7718 0.0303271 29.5294 0.0034028 29.2853C-0.0307013 28.964 0.195464 28.7253 0.505991 28.6643C0.705231 28.6248 0.90088 28.5691 1.09115 28.4991C1.16653 28.4722 1.22577 28.3932 1.2868 28.3322C1.4627 28.1509 1.63502 27.9678 1.80913 27.7847C1.96888 27.616 2.13222 27.4509 2.28479 27.275C2.33505 27.2175 2.35659 27.1368 2.39069 27.065C2.46967 26.8962 2.53788 26.7203 2.63122 26.5606C2.76404 26.3344 2.93815 26.1388 3.15355 25.9844C3.35638 25.8408 3.56459 25.7044 3.76383 25.5554C3.9182 25.4387 4.03128 25.2862 4.12821 25.1156C4.25206 24.9002 4.39027 24.6938 4.5231 24.4838C4.58413 24.3869 4.64875 24.2918 4.71516 24.1984C4.79055 24.0961 4.86773 23.9956 4.9485 23.8987C5.1262 23.6851 5.3057 23.4733 5.48699 23.2632C5.5534 23.1861 5.627 23.1161 5.68982 23.0389C5.75085 22.9653 5.82265 22.8935 5.85496 22.8073C5.88368 22.7301 5.88906 22.626 5.86034 22.5506C5.77957 22.3335 5.78675 22.1288 5.85675 21.9116C5.90521 21.7591 5.96624 21.6155 6.04522 21.4791C6.10086 21.3839 6.17087 21.2942 6.24626 21.2116C6.31806 21.1308 6.39703 21.0555 6.48498 20.9926C6.5873 20.9172 6.70218 20.8634 6.80628 20.7916C6.89783 20.7288 6.98039 20.6534 7.06834 20.5816C7.07911 20.5726 7.08809 20.56 7.09706 20.5493C7.21912 20.3985 7.34477 20.2495 7.46324 20.0951C7.60145 19.9157 7.73607 19.7344 7.8689 19.5513C8.00172 19.3664 8.12916 19.1797 8.25302 18.9877C8.28712 18.9356 8.29968 18.8692 8.31763 18.8082C8.35353 18.6843 8.38405 18.5605 8.42174 18.4384C8.44687 18.3558 8.48098 18.2769 8.5079 18.1961C8.53841 18.1045 8.56175 18.0112 8.59226 17.9197C8.60303 17.8856 8.62457 17.855 8.63714 17.8227C8.73945 17.5445 8.84176 17.2663 8.94407 16.9881C8.95843 16.9486 8.97279 16.9091 8.98177 16.8678C8.99254 16.814 8.98177 16.7727 8.92074 16.7494C8.73945 16.6794 8.57252 16.5842 8.41277 16.4711C8.28174 16.3796 8.13814 16.306 8.0107 16.2109C7.90838 16.1337 7.80248 16.0762 7.67863 16.0493C7.61042 16.035 7.54221 16.0188 7.47401 16.017C7.24964 16.0152 7.03963 15.9632 6.835 15.8716C6.64294 15.7855 6.4455 15.7119 6.25164 15.6293C6.11882 15.5719 5.98958 15.5001 5.85316 15.4552C5.72393 15.4121 5.5893 15.3888 5.45468 15.3654C5.20698 15.3206 4.95748 15.3403 4.70977 15.3654C4.61105 15.3744 4.55361 15.4462 4.49976 15.5216C4.39566 15.6706 4.25745 15.7819 4.0959 15.8698C4.04385 15.8985 4.00436 15.9524 3.95948 15.9955C3.94871 16.0044 3.94333 16.0206 3.93256 16.0296C3.90205 16.0493 3.84999 16.0906 3.84102 16.0816C3.80691 16.0529 3.77101 16.0098 3.76563 15.9685C3.75845 15.9165 3.77819 15.8608 3.79076 15.8088C3.80332 15.7532 3.82666 15.6993 3.83384 15.6437C3.83563 15.6221 3.80512 15.5755 3.78896 15.5755C3.71896 15.5755 3.64716 15.579 3.58075 15.5988C3.53049 15.6131 3.48741 15.6544 3.43895 15.6831C3.36894 15.7244 3.27022 15.6939 3.22894 15.6167C3.14637 15.4588 3.11047 15.2883 3.16252 15.1159C3.20919 14.958 3.32048 14.8449 3.46946 14.7713C3.57895 14.7175 3.69024 14.6834 3.81409 14.6834C4.03308 14.6834 4.25206 14.678 4.46925 14.6672C4.7726 14.6528 5.07595 14.6259 5.38109 14.6134C5.55161 14.6026 5.72572 14.6098 5.90521 14.6098Z" fill="#00ADAE"/>
</svg>
