<svg width="28" height="28" viewBox="0 0 28 28" fill="none" xmlns="http://www.w3.org/2000/svg">
<rect width="28" height="28" rx="3" fill="#E7F7EF"/>
<path d="M19.3359 19.1943L18.6213 10.1907C18.5768 9.61063 18.0863 9.15622 17.5045 9.15622H16.0932V9.09278C16.0932 7.38741 14.7058 6 13.0004 6C11.295 6 9.9076 7.38741 9.9076 9.09278V9.15622H8.49629C7.91451 9.15622 7.42391 9.61059 7.37954 10.1895L6.66479 19.1955C6.60947 19.9166 6.85963 20.6345 7.35107 21.1651C7.84251 21.6957 8.53916 22 9.26238 22H16.7383C17.4615 22 18.1582 21.6957 18.6497 21.1651C19.1411 20.6345 19.3913 19.9166 19.3359 19.1943ZM10.8448 9.09278C10.8448 7.90419 11.8118 6.93719 13.0004 6.93719C14.1889 6.93719 15.156 7.90422 15.156 9.09278V9.15622H10.8448V9.09278ZM17.9621 20.5283C17.6428 20.873 17.2082 21.0628 16.7383 21.0628H9.26241C8.79254 21.0628 8.35797 20.873 8.03866 20.5283C7.71938 20.1836 7.56332 19.7357 7.59919 19.2684L8.31388 10.2623C8.32113 10.1676 8.40126 10.0934 8.49629 10.0934H9.9076V11.2476C9.9076 11.5064 10.1174 11.7162 10.3762 11.7162C10.635 11.7162 10.8448 11.5064 10.8448 11.2476V10.0934H15.156V11.2476C15.156 11.5064 15.3658 11.7162 15.6246 11.7162C15.8833 11.7162 16.0932 11.5064 16.0932 11.2476V10.0934H17.5045C17.5995 10.0934 17.6796 10.1676 17.687 10.2636L18.4015 19.2672C18.4375 19.7357 18.2814 20.1835 17.9621 20.5283Z" fill="black"/>
<path d="M15.1115 13.9468C14.9285 13.7638 14.6318 13.7638 14.4488 13.9468L12.3565 16.0392L11.5519 15.2346C11.3689 15.0516 11.0722 15.0516 10.8892 15.2346C10.7062 15.4176 10.7062 15.7143 10.8892 15.8973L12.0251 17.0332C12.1166 17.1247 12.2365 17.1705 12.3564 17.1705C12.4763 17.1705 12.5963 17.1248 12.6877 17.0332L15.1114 14.6095C15.2945 14.4265 15.2945 14.1298 15.1115 13.9468Z" fill="black"/>
</svg>
