<svg width="28" height="28" viewBox="0 0 28 28" fill="none" xmlns="http://www.w3.org/2000/svg">
<rect width="28" height="28" rx="3" fill="#E7F7EF"/>
<path fill-rule="evenodd" clip-rule="evenodd" d="M17.165 6.93883C17.7497 6.35372 18.6977 6.35372 19.2825 6.93883L21.0615 8.71901C21.6462 9.30412 21.6462 10.2528 21.0615 10.8379L13.6836 18.2206C13.4755 18.4289 13.2107 18.5711 12.9222 18.6296L10.6913 19.0818C10.1993 19.1815 9.69017 19.028 9.33526 18.6728C8.98034 18.3177 8.82687 17.8082 8.92652 17.3159L9.37845 15.0835C9.43688 14.7948 9.57905 14.5298 9.78718 14.3216L17.165 6.93883ZM10.7167 16.0193L10.797 15.6224L12.3837 17.2101L11.987 17.2905L10.394 17.6134L10.7167 16.0193ZM13.5386 16.2469L11.7596 14.4667L17.165 9.05769L18.2237 7.99826L18.944 8.71901L19.2825 9.05769L20.0027 9.77844L18.944 10.8379L13.5386 16.2469ZM7.24863 20.0017C6.83517 20.0017 6.5 20.3371 6.5 20.7509C6.5 21.1646 6.83518 21.5 7.24863 21.5L20.7241 21.5C21.1375 21.5 21.4727 21.1646 21.4727 20.7509C21.4727 20.3371 21.1375 20.0017 20.7241 20.0017L7.24863 20.0017Z" fill="black"/>
</svg>
