<svg width="25" height="24" viewBox="0 0 25 24" fill="none" xmlns="http://www.w3.org/2000/svg">
<path fill-rule="evenodd" clip-rule="evenodd" d="M11.5 16C9.84315 16 8.5 17.3431 8.5 19C8.5 19.5523 8.94772 20 9.5 20H19.5C20.0523 20 20.5 19.5523 20.5 19C20.5 17.3431 19.1569 16 17.5 16H11.5ZM6.5 19C6.5 16.2386 8.73858 14 11.5 14H17.5C20.2614 14 22.5 16.2386 22.5 19C22.5 20.6569 21.1569 22 19.5 22H9.5C7.84315 22 6.5 20.6569 6.5 19Z" fill="#12131A"/>
<path fill-rule="evenodd" clip-rule="evenodd" d="M14.5 4C12.8431 4 11.5 5.34315 11.5 7C11.5 8.65685 12.8431 10 14.5 10C16.1569 10 17.5 8.65685 17.5 7C17.5 5.34315 16.1569 4 14.5 4ZM9.5 7C9.5 4.23858 11.7386 2 14.5 2C17.2614 2 19.5 4.23858 19.5 7C19.5 9.76142 17.2614 12 14.5 12C11.7386 12 9.5 9.76142 9.5 7Z" fill="#12131A"/>
</svg>
