<svg width="430" height="932" viewBox="0 0 430 932" fill="none" xmlns="http://www.w3.org/2000/svg">
<g clip-path="url(#clip0_283_3893)">
<rect width="430" height="932" fill="#00ADAE"/>
<g opacity="0.2">
<path fill-rule="evenodd" clip-rule="evenodd" d="M288.658 679.303C258.967 683.029 223.384 696.064 195.042 686.537C166.7 677.01 130.411 662.673 109.002 641.791C87.5933 620.909 80.1616 579.576 69.9342 551.471C59.7067 523.367 59.779 502.265 62.7564 472.506C65.7338 442.747 78.3242 406.504 93.9173 380.984C109.51 355.464 134.262 341.403 159.382 325.176C184.502 308.95 213.199 298.973 242.872 295.255C272.544 291.536 294.107 281.377 322.454 290.902C350.801 300.427 374.314 309.931 395.721 330.813C417.129 351.696 440.684 385.065 450.911 413.17C461.138 441.275 451.353 464.926 448.379 494.682C445.405 524.437 446.082 552.944 430.475 578.479C414.868 604.013 374.747 653.268 349.68 669.44C324.612 685.612 318.349 675.577 288.658 679.303H288.658Z" stroke="white" stroke-width="2"/>
<path fill-rule="evenodd" clip-rule="evenodd" d="M218.643 720.303C188.952 724.029 153.369 737.064 125.027 727.537C96.6855 718.01 60.3961 703.673 38.9874 682.791C17.5786 661.909 10.147 620.576 -0.0804644 592.471C-10.3079 564.367 -10.2356 543.265 -7.25821 513.506C-4.28081 483.747 8.30954 447.504 23.9026 421.984C39.4957 396.464 64.2473 382.403 89.3675 366.176C114.488 349.95 143.185 339.973 172.857 336.255C202.529 332.536 224.092 322.377 252.439 331.902C280.786 341.427 304.299 350.931 325.707 371.813C347.114 392.696 370.669 426.065 380.896 454.17C391.123 482.275 381.338 505.926 378.364 535.682C375.391 565.437 376.067 593.944 360.46 619.479C344.853 645.013 304.732 694.268 279.665 710.44C254.598 726.612 248.334 716.577 218.643 720.303H218.643Z" stroke="white" stroke-width="2"/>
<path fill-rule="evenodd" clip-rule="evenodd" d="M364.986 685.985C334.099 701.827 300.483 730.155 265.81 731.016C231.137 731.877 185.893 730.648 154.272 716.381C122.652 702.113 98.1545 660.007 75.8573 633.43C53.5601 606.853 45.2679 583.823 36.7081 550.203C28.1483 516.582 27.4949 472.08 34.3684 438.075C41.2418 404.07 62.6442 378.922 83.5895 351.267C104.535 323.612 131.858 301.35 162.727 285.523C193.595 269.695 213.07 250.065 247.748 249.2C282.426 248.336 311.826 249.365 343.445 263.634C375.065 277.902 413.978 304.929 436.275 331.507C458.572 358.085 457.288 387.749 465.85 421.363C474.413 454.978 486.459 485.783 479.576 519.81C472.693 553.836 448.499 623.446 427.589 651.021C406.68 678.595 395.872 670.142 364.986 685.985Z" stroke="white" stroke-width="2"/>
<path fill-rule="evenodd" clip-rule="evenodd" d="M450.838 662.982C423.455 692.506 398.05 736.723 360.596 751.42C323.142 766.116 273.337 782.73 233.209 779.724C193.082 776.718 149.675 740.541 114.827 720.419C79.9797 700.296 61.8047 678.482 39.1372 645.231C16.4697 611.98 -1.89632 563.73 -7.89361 523.936C-13.8909 484.141 -0.537542 448.236 11.3231 409.78C23.1838 371.324 44.1364 336.216 71.5058 306.715C98.8753 277.214 112.317 248.089 149.774 233.387C187.231 218.684 219.687 208.14 259.814 211.147C299.94 214.154 353.079 228.175 387.927 248.298C422.775 268.422 433.143 301.267 455.811 334.51C478.479 367.754 503.83 396.554 509.826 436.375C515.821 476.197 517.062 561.674 505.209 600.028C493.356 638.383 478.221 633.457 450.838 662.982H450.838Z" stroke="white" stroke-width="2"/>
<path fill-rule="evenodd" clip-rule="evenodd" d="M535.294 603.842C517.158 646.891 507.005 705.17 472.009 736.051C437.013 766.932 389.313 804.804 344.38 817.45C299.447 830.095 237.781 807.884 191.813 799.777C145.845 791.67 117.38 775.104 79.4808 747.853C41.5817 720.602 2.42138 675.295 -19.9022 634.297C-42.2258 593.299 -41.9133 548.862 -44.24 502.237C-46.5667 455.613 -37.6545 409.03 -19.5235 366.012C-1.39245 322.995 1.70541 285.914 36.7032 255.025C71.7009 224.135 102.897 199.764 147.829 187.12C192.762 174.476 256.247 168.673 302.216 176.782C348.184 184.891 372.515 216.578 410.412 243.821C448.309 271.064 487.367 292.397 509.7 333.425C532.032 374.454 567.293 467.136 569.587 513.647C571.882 560.158 553.431 560.794 535.294 603.842Z" stroke="white" stroke-width="2"/>
<path fill-rule="evenodd" clip-rule="evenodd" d="M603.895 505.865C601.203 559.987 613.256 627.542 587.358 675.09C561.461 722.637 524.49 782.846 480.528 814.46C436.565 846.074 360.535 846.331 307.212 855.734C253.889 865.137 216.289 858.373 164.167 843.706C112.045 829.04 51.3857 795.192 10.7884 759.36C-29.809 723.528 -47.0962 674.966 -68.1282 625.066C-89.1602 575.166 -97.9248 520.853 -95.2259 466.768C-92.527 412.683 -103.86 371.034 -77.9646 323.476C-52.0692 275.919 -27.7323 236.975 16.2301 205.363C60.1925 173.752 127.093 142.236 180.417 132.835C233.742 123.434 272.834 148.32 324.95 162.979C377.066 177.638 428.104 185.394 468.723 221.255C509.342 257.117 584.544 344.152 605.496 393.941C626.448 443.729 606.588 451.744 603.895 505.865V505.865Z" stroke="white" stroke-width="2"/>
<path fill-rule="evenodd" clip-rule="evenodd" d="M639.807 371.846C658.342 431.909 698.279 500.765 688.912 562.87C679.545 624.975 663.129 705.275 627.749 757.179C592.369 809.083 509.595 839.532 455.201 870.94C400.806 902.347 357.137 909.894 294.504 914.589C231.871 919.283 152.322 906.456 93.8548 883.507C35.3876 860.557 -2.72029 814.482 -45.4411 768.434C-88.162 722.386 -119.262 666.66 -137.775 606.634C-156.288 546.608 -185.164 505.706 -175.803 443.591C-166.441 381.476 -155.362 329.369 -119.981 277.467C-84.6002 225.565 -24.1782 164.667 30.2184 133.26C84.615 101.853 137.099 113.469 199.723 108.769C262.347 104.068 321.058 92.2707 379.56 115.244C438.063 138.218 554.563 203.251 597.152 249.209C639.742 295.167 621.273 311.784 639.807 371.846V371.846Z" stroke="white" stroke-width="2"/>
<path fill-rule="evenodd" clip-rule="evenodd" d="M625.788 211.51C669.818 269.627 740.665 328.836 755.091 400.25C769.518 471.664 783.479 565.708 765.503 636.324C747.528 706.941 669.379 772.975 622.546 828.794C575.713 884.613 531.106 910.167 464.695 940.136C398.285 970.106 306.484 987.688 233.649 985.872C160.813 984.055 100.996 948.952 36.1613 915.709C-28.6731 882.467 -84.6797 834.062 -128.672 775.978C-172.664 717.893 -220.366 684.765 -234.802 613.342C-249.238 541.92 -257.832 480.725 -239.855 410.11C-221.877 339.496 -180.173 249.139 -133.337 193.321C-86.5009 137.502 -24.6826 129.339 41.7152 99.3661C108.113 69.3935 167.431 33.2378 240.314 35.0667C313.198 36.8955 465.987 61.5578 530.642 94.755C595.298 127.952 581.757 153.394 625.788 211.51L625.788 211.51Z" stroke="white" stroke-width="2"/>
</g>
<path d="M221.354 489.93C221.108 489.93 220.857 489.861 220.626 489.724C192.818 472.583 165.911 470.092 148.244 471.013C129.114 472.017 116.453 477.107 116.33 477.156C115.622 477.447 114.814 477.107 114.524 476.398C114.233 475.689 114.573 474.882 115.282 474.591C115.814 474.375 128.504 469.27 148.101 468.246C166.162 467.301 193.665 469.851 222.083 487.366C222.733 487.769 222.934 488.621 222.536 489.271C222.27 489.694 221.817 489.93 221.354 489.93Z" fill="white"/>
<path d="M174.545 520.937C174.545 521.66 174.205 522 173.482 522H166.915C166.191 522 165.852 521.66 165.852 520.937V487.522C165.852 486.798 166.191 486.459 166.915 486.459H194.147C194.87 486.459 195.21 486.798 195.21 487.522V493.124C195.21 493.848 194.87 494.187 194.147 494.187H174.545V500.365H192.699C193.423 500.365 193.763 500.705 193.763 501.428V507.03C193.763 507.754 193.423 508.094 192.699 508.094H174.545V520.937Z" fill="url(#paint0_linear_283_3893)"/>
<path d="M205.498 486.459C206.222 486.459 206.561 486.798 206.561 487.522V520.937C206.561 521.66 206.222 522 205.498 522H198.931C198.208 522 197.868 521.66 197.868 520.937V487.522C197.868 486.798 198.208 486.459 198.931 486.459H205.498Z" fill="url(#paint1_linear_283_3893)"/>
<path d="M233.449 521.995C232.725 521.946 232.386 521.611 232.386 520.932V504.421C232.386 500.897 231.76 498.337 230.5 496.698C229.245 495.009 227.557 494.187 225.381 494.187H218.863V520.937C218.814 521.66 218.479 522 217.8 522H211.233C210.51 521.951 210.17 521.616 210.17 520.937V487.522C210.219 486.798 210.554 486.459 211.233 486.459H225.381C230.643 486.459 234.557 488.004 237.161 491.096C239.77 494.138 241.074 498.578 241.074 504.421V520.937C241.025 521.66 240.69 522 240.011 522H233.449V521.995Z" fill="url(#paint2_linear_283_3893)"/>
<path d="M244.461 520.937V487.522C244.461 486.798 244.801 486.459 245.524 486.459H260.538C265.992 486.459 270.049 488.004 272.756 491.096C275.459 494.138 276.812 498.534 276.812 504.328C276.812 510.023 275.459 514.419 272.707 517.461C269.955 520.504 265.899 522 260.538 522H245.524C244.796 521.995 244.461 521.66 244.461 520.937ZM260.538 514.271C262.906 514.271 264.693 513.356 265.85 511.569C267.056 509.733 267.637 507.173 267.637 503.845C267.637 500.513 267.011 498.101 265.707 496.506C264.402 494.96 262.714 494.187 260.538 494.187H253.149V514.271H260.538Z" fill="url(#paint3_linear_283_3893)"/>
<path d="M297.379 500.365C301.967 500.365 305.299 501.33 307.52 503.215C309.646 505.101 310.754 507.803 310.754 511.279C310.754 514.754 309.641 517.412 307.328 519.243C305.108 521.079 301.775 521.995 297.379 521.995H280.43C279.707 521.995 279.367 521.655 279.367 520.932V515.33C279.367 514.606 279.707 514.267 280.43 514.267H297.379C300.18 514.267 301.578 513.253 301.578 511.274C301.578 509.147 300.18 508.089 297.379 508.089H292.742C288.154 508.089 284.826 507.124 282.601 505.239C280.475 503.353 279.367 500.651 279.367 497.175C279.367 493.7 280.48 491.042 282.793 489.21C285.013 487.374 288.346 486.459 292.742 486.459H308.726C309.449 486.459 309.789 486.798 309.789 487.522V493.124C309.789 493.848 309.449 494.187 308.726 494.187H292.742C289.941 494.187 288.543 495.201 288.543 497.18C288.543 499.307 289.941 500.365 292.742 500.365H297.379Z" fill="url(#paint4_linear_283_3893)"/>
<path d="M149.139 470.82L138.216 463.608C159.969 430.666 196.49 411 235.915 411C274.843 411 311.108 430.282 332.93 462.579L322.085 469.904C302.705 441.215 270.491 424.084 235.92 424.084C200.9 424.089 168.46 441.56 149.139 470.82Z" fill="url(#paint5_radial_283_3893)"/>
<path d="M332.441 414.598L280.039 467.372L293.257 480.497L345.659 427.723L332.441 414.598Z" fill="white"/>
<path d="M341.073 439.447L304.131 476.757L317.367 489.863L354.31 452.553L341.073 439.447Z" fill="white"/>
<path d="M139.45 414.605L126.232 427.729L178.634 480.503L191.852 467.378L139.45 414.605Z" fill="white"/>
<path d="M130.825 439.439L117.589 452.545L154.531 489.855L167.768 476.749L130.825 439.439Z" fill="white"/>
<path d="M227.895 444.09L226.832 431.045C231.71 430.646 239.006 430.621 244.563 430.986L243.712 444.045C238.794 443.725 232.144 443.745 227.895 444.09Z" fill="url(#paint6_linear_283_3893)"/>
<path d="M282.483 457.701C281.67 457.174 280.223 456.278 279.396 455.781C269.861 450.022 259.445 446.271 248.394 444.631L250.313 431.685C262.462 433.486 273.947 437.489 284.521 443.607C286.032 444.479 289.168 446.674 291.388 448.116L282.483 457.701Z" fill="white"/>
<path d="M223.072 444.262C215.294 445.448 207.605 447.565 200.246 450.908C200.044 450.991 199.847 451.085 199.65 451.173C195.874 452.921 192.192 454.988 188.623 457.42L180.028 448.269L180.023 448.264C181.638 446.758 183.587 445.429 184.661 444.759C186.772 443.45 188.919 442.229 191.104 441.092C200.472 436.214 210.519 432.935 221.093 431.321L223.072 444.262Z" fill="white"/>
<path d="M210.179 468.752L203.73 457.361C210.14 453.733 217.105 451.622 224.44 451.085L225.39 464.14C220.01 464.534 214.89 466.084 210.179 468.752Z" fill="white"/>
<path d="M227.413 480.084C222.589 480.842 217.883 482.083 213.369 483.761L188.628 457.42L180.033 448.269L180.028 448.264C181.643 446.758 183.592 445.429 184.665 444.759C186.777 443.45 188.923 442.229 191.109 441.092L200.245 450.903L227.413 480.084Z" fill="white"/>
<path d="M274.223 445.995L259.878 483.732C255.655 482.28 251.278 481.211 246.804 480.557L262.566 440.034L274.223 445.995Z" fill="white"/>
<path d="M242.457 447.551V480.05C240.36 479.863 238.239 479.774 236.107 479.774C233.843 479.774 231.598 479.877 229.368 480.084V447.546H242.457V447.551Z" fill="white"/>
<path d="M145.146 453.999L154.529 463.386L155.435 462.259L145.146 453.999Z" fill="white"/>
<path d="M162.051 437.233L171.345 446.571L172.689 445.488L162.051 437.233Z" fill="white"/>
<path d="M326.614 453.96L316.577 462.269L317.394 463.421L326.614 453.96Z" fill="white"/>
<path d="M309.911 437.331L299.411 445.626L300.632 446.674L309.911 437.331Z" fill="white"/>
<path d="M92.1949 451.066C92.9579 451.056 93.7012 451.091 94.4347 451.219C94.6709 451.258 94.922 451.243 95.1583 451.278C95.37 451.312 95.5669 451.396 95.7785 451.44C96.6055 451.603 97.3932 451.869 98.1512 452.243C98.4072 452.371 98.7026 452.435 98.9832 452.513C99.4213 452.637 99.8594 452.76 100.297 452.863C100.731 452.966 101.174 453.025 101.607 453.129C102.143 453.262 102.685 453.395 103.207 453.577C103.586 453.705 103.925 453.931 104.304 454.074C105.028 454.345 105.594 454.832 106.141 455.344C106.259 455.452 106.308 455.625 106.426 455.738C106.579 455.885 106.741 456.038 106.933 456.122C107.115 456.201 107.209 456.013 107.278 455.871C107.396 455.63 107.475 455.369 107.608 455.132C107.834 454.734 108.065 454.325 108.346 453.966C108.612 453.631 108.937 453.34 109.257 453.055C109.394 452.932 109.572 452.853 109.739 452.765C110.231 452.509 110.748 452.44 111.3 452.474C111.669 452.499 112.003 452.602 112.348 452.72C113.111 452.986 113.643 453.513 113.992 454.217C114.214 454.66 114.401 455.127 114.534 455.605C114.701 456.196 114.534 456.732 114.12 457.19C113.918 457.411 113.761 457.672 113.569 457.904C113.441 458.051 113.288 458.179 113.146 458.312C113.062 458.391 112.973 458.47 112.88 458.539C112.638 458.726 112.54 458.977 112.486 459.267C112.471 459.351 112.446 459.435 112.412 459.513C112.269 459.809 112.255 459.804 111.925 459.76C111.693 459.73 111.487 459.779 111.28 459.927C110.96 460.163 110.635 460.409 110.207 460.424C110.118 460.429 110.029 460.468 109.941 460.503C109.385 460.734 109.276 460.562 109.089 460.08C109.02 459.912 108.971 459.735 108.907 459.563C108.853 459.42 108.764 459.385 108.636 459.489C108.499 459.597 108.351 459.701 108.213 459.804C108.129 459.868 108.12 459.927 108.198 460.016C108.38 460.227 108.572 460.439 108.73 460.67C108.853 460.852 108.947 461.059 109.035 461.261C109.134 461.497 109.202 461.743 109.296 461.985C109.409 462.275 109.537 462.565 109.66 462.851C109.759 463.077 109.852 463.309 109.97 463.525C110.133 463.821 110.093 463.954 109.793 464.072C109.508 464.18 109.449 464.377 109.611 464.633C109.793 464.918 109.97 465.204 110.153 465.489C110.276 465.681 110.468 465.75 110.704 465.667C111.117 465.519 111.531 465.361 111.939 465.204C112.358 465.046 112.781 464.904 113.19 464.722C113.643 464.52 114.066 464.254 114.283 463.781C114.352 463.639 114.371 463.442 114.337 463.289C114.184 462.639 114.253 462.029 114.544 461.428C114.667 461.177 114.721 460.892 114.814 460.626C114.873 460.459 115.031 460.429 115.164 460.557C115.193 460.587 115.213 460.616 115.243 460.646C115.38 460.764 115.548 460.724 115.587 460.547C115.626 460.39 115.646 460.222 115.656 460.06C115.676 459.681 115.966 459.415 116.34 459.425C116.537 459.43 116.66 459.543 116.769 459.676C117.207 460.232 117.364 460.872 117.197 461.556C117.084 462.024 116.926 462.472 116.695 462.91C116.326 463.609 115.764 464.146 115.297 464.761C115.026 465.115 114.785 465.489 114.529 465.854C114.288 466.198 114.066 466.558 113.8 466.878C113.416 467.34 113.008 467.783 112.579 468.212C112.363 468.433 112.072 468.581 111.831 468.778C111.452 469.093 110.999 469.27 110.556 469.457C110.049 469.674 109.705 469.605 109.35 469.216C109.084 468.925 108.828 468.625 108.577 468.325C108.287 467.98 107.992 467.636 107.711 467.281C107.337 466.809 106.977 466.326 106.594 465.864C106.377 465.603 106.278 465.608 106.018 465.839C105.501 466.297 104.984 466.75 104.477 467.217C103.93 467.724 103.399 468.246 102.862 468.758C102.242 469.354 101.622 469.944 101.001 470.545C100.942 470.604 100.888 470.673 100.834 470.742C100.677 470.944 100.731 471.136 100.957 471.264C101.41 471.515 101.853 471.776 102.301 472.037C102.675 472.253 103.044 472.47 103.414 472.696C103.719 472.883 104.024 473.075 104.324 473.277C104.841 473.627 105.353 473.976 105.86 474.335C106.101 474.508 106.338 474.685 106.559 474.882C107.13 475.384 107.701 475.886 108.248 476.413C108.567 476.723 108.858 477.067 109.134 477.417C109.237 477.55 109.281 477.752 109.296 477.929C109.33 478.342 109.227 478.721 108.922 479.027C108.75 479.199 108.607 479.396 108.425 479.553C108.243 479.706 108.031 479.829 107.824 479.952C107.485 480.154 107.145 480.361 106.795 480.543C106.475 480.71 106.136 480.848 105.806 481.006C105.594 481.109 105.392 481.227 105.186 481.335C105.033 481.409 104.876 481.473 104.723 481.542C104.383 481.705 104.039 481.862 103.699 482.034C103.409 482.182 103.118 482.335 102.833 482.492C102.508 482.669 102.178 482.852 101.858 483.039C101.41 483.295 100.962 483.555 100.519 483.821C100.243 483.984 99.948 484.131 99.7068 484.333C99.3622 484.624 99.1456 485.003 99.0373 485.456C98.8995 486.036 98.8306 486.622 98.8502 487.218C98.8749 487.814 99.0471 488.36 99.4114 488.842C99.5148 488.975 99.5739 489.138 99.6723 489.276C99.756 489.399 99.8545 489.507 99.9529 489.615C100.16 489.832 100.12 490.226 99.8692 490.388C99.7265 490.487 99.5788 490.551 99.3967 490.501C98.9979 490.393 98.609 490.285 98.23 490.103C97.4719 489.733 96.8763 489.162 96.2659 488.601C95.6801 488.065 95.0894 487.528 94.5085 486.991C94.1935 486.701 93.9276 486.361 93.8095 485.943C93.7209 485.648 93.6815 485.372 93.7947 485.032C93.9424 484.57 94.2378 484.259 94.6217 484.136C95.1829 483.954 95.4979 483.521 95.8967 483.167C96.3791 482.738 96.8566 482.305 97.3439 481.887C97.7131 481.572 98.0922 481.266 98.481 480.976C98.8453 480.705 99.2293 480.449 99.6083 480.198C99.9283 479.987 100.258 479.78 100.593 479.593C100.854 479.445 101.124 479.317 101.4 479.194C101.745 479.037 102.094 478.889 102.444 478.746C102.601 478.682 102.769 478.643 102.931 478.598C102.995 478.579 103.074 478.589 103.118 478.549C103.202 478.485 103.261 478.397 103.335 478.323C103.261 478.278 103.192 478.214 103.113 478.2C102.567 478.096 102.015 478.003 101.464 477.909C100.869 477.806 100.278 477.702 99.6822 477.609C99.4311 477.57 99.1702 477.57 98.9192 477.515C98.7173 477.471 98.5204 477.387 98.3432 477.284C98.0922 477.136 97.8608 476.949 97.6196 476.787C97.4473 476.674 97.1076 476.693 96.9255 476.836C96.6794 477.033 96.4382 477.24 96.2019 477.447C95.6112 477.968 95.0205 478.495 94.4347 479.017C94.41 479.037 94.3904 479.066 94.3657 479.086C93.716 479.672 93.0613 480.247 92.4164 480.838C91.87 481.34 91.3383 481.867 90.7919 482.369C90.28 482.842 89.768 483.314 89.2364 483.757C89.0641 483.9 88.8278 483.959 88.626 484.067C88.1288 484.333 87.6562 484.643 87.2378 485.022C86.9474 485.283 86.6569 485.554 86.3616 485.81C86.2779 485.879 86.1647 485.913 86.0859 485.987C85.8644 486.184 85.6626 486.396 85.4411 486.588C84.9045 487.055 84.3532 487.513 83.8166 487.986C83.2554 488.483 82.6795 488.97 82.1478 489.497C81.8032 489.837 81.4882 490.221 81.2322 490.629C81.0107 490.979 80.8778 491.387 80.7153 491.771C80.5332 492.204 80.3609 492.648 80.1788 493.086C80.0803 493.322 79.9819 493.558 79.8785 493.79C79.8244 493.918 79.7456 494.031 79.6964 494.159C79.5831 494.464 79.4552 494.769 79.3764 495.084C79.2878 495.453 79.2336 495.837 79.3764 496.212C79.4699 496.448 79.5635 496.684 79.6816 496.911C79.8834 497.299 79.8883 497.358 79.5635 497.649C79.2681 497.92 78.9087 498.038 78.5248 497.9C78.2983 497.816 78.0818 497.669 77.8947 497.516C77.555 497.235 77.3237 496.861 77.1415 496.467C77.0135 496.187 76.9397 495.882 76.8708 495.581C76.6936 494.828 76.5213 494.07 76.3638 493.312C76.2259 492.648 76.0832 491.983 76.0093 491.314C75.9158 490.432 76.5361 489.778 77.3877 489.61C77.9341 489.502 78.4706 489.349 78.9924 489.157C79.1992 489.084 79.3616 488.867 79.529 488.7C80.0114 488.202 80.484 487.7 80.9615 487.198C81.3996 486.735 81.8475 486.283 82.266 485.8C82.4038 485.643 82.4629 485.421 82.5564 485.224C82.773 484.762 82.9601 484.279 83.216 483.841C83.5803 483.221 84.0578 482.684 84.6485 482.261C85.2048 481.867 85.7758 481.493 86.3222 481.084C86.7455 480.764 87.0557 480.346 87.3215 479.878C87.6612 479.288 88.0402 478.721 88.4045 478.146C88.5718 477.88 88.7491 477.619 88.9312 477.363C89.1379 477.082 89.3496 476.807 89.5711 476.541C90.0585 475.955 90.5507 475.374 91.0479 474.798C91.23 474.586 91.4319 474.394 91.6042 474.183C91.7715 473.981 91.9684 473.784 92.057 473.548C92.1358 473.336 92.1506 473.051 92.0718 472.844C91.8503 472.248 91.87 471.687 92.062 471.091C92.1949 470.673 92.3622 470.279 92.5788 469.905C92.7314 469.644 92.9234 469.398 93.1302 469.172C93.3271 468.95 93.5437 468.743 93.7849 468.571C94.0655 468.364 94.3805 468.217 94.666 468.02C94.9171 467.847 95.1435 467.641 95.3847 467.444C95.4143 467.419 95.4389 467.385 95.4635 467.355C95.7982 466.942 96.1428 466.533 96.4677 466.11C96.8467 465.617 97.2159 465.12 97.5802 464.618C97.9445 464.111 98.294 463.599 98.6336 463.072C98.7272 462.93 98.7616 462.748 98.8109 462.58C98.9093 462.241 98.993 461.901 99.0964 461.566C99.1653 461.34 99.2588 461.123 99.3327 460.902C99.4163 460.651 99.4803 460.395 99.564 460.144C99.5936 460.05 99.6526 459.966 99.6871 459.878C99.9677 459.115 100.248 458.352 100.529 457.589C100.568 457.48 100.608 457.372 100.632 457.259C100.662 457.111 100.632 456.998 100.465 456.934C99.9677 456.742 99.5099 456.481 99.0718 456.171C98.7124 455.92 98.3186 455.718 97.9691 455.457C97.6885 455.246 97.3981 455.088 97.0584 455.014C96.8714 454.975 96.6843 454.93 96.4972 454.926C95.8819 454.921 95.306 454.778 94.7448 454.527C94.2181 454.291 93.6766 454.089 93.1449 453.862C92.7807 453.705 92.4262 453.508 92.0521 453.385C91.6977 453.267 91.3285 453.203 90.9593 453.139C90.28 453.016 89.5957 453.07 88.9164 453.139C88.6457 453.163 88.4881 453.36 88.3405 453.567C88.055 453.976 87.6759 454.281 87.2329 454.522C87.0901 454.601 86.9818 454.748 86.8588 454.866C86.8292 454.891 86.8145 454.935 86.7849 454.96C86.7012 455.014 86.5585 455.127 86.5339 455.103C86.4403 455.024 86.3419 454.906 86.3271 454.793C86.3074 454.65 86.3616 454.497 86.396 454.355C86.4305 454.202 86.4945 454.054 86.5142 453.902C86.5191 453.843 86.4354 453.715 86.3911 453.715C86.1991 453.715 86.0022 453.724 85.8201 453.779C85.6823 453.818 85.5641 453.931 85.4312 454.01C85.2392 454.123 84.9685 454.04 84.8553 453.828C84.6288 453.395 84.5304 452.927 84.6731 452.454C84.8011 452.021 85.1063 451.711 85.5149 451.509C85.8152 451.362 86.1204 451.268 86.46 451.268C87.0606 451.268 87.6611 451.253 88.2568 451.224C89.0887 451.184 89.9206 451.111 90.7575 451.076C91.2251 451.047 91.7026 451.066 92.1949 451.066Z" fill="white"/>
<g opacity="0.2">
<mask id="mask0_283_3893" style="mask-type:luminance" maskUnits="userSpaceOnUse" x="-30" y="522" width="544" height="701">
<path d="M514 522H-30V1223H514V522Z" fill="white"/>
</mask>
<g mask="url(#mask0_283_3893)">
<path d="M-71.7825 1128.34C-60.1304 1139.99 -41.2516 1139.99 -29.6231 1128.34L212.293 886.424C223.945 874.772 223.945 855.893 212.293 844.264C200.641 832.612 181.762 832.612 170.134 844.264L-71.7825 1086.18C-83.411 1097.83 -83.411 1116.71 -71.7825 1128.34Z" fill="white"/>
<path d="M-148.333 1120.57C-136.681 1132.22 -117.802 1132.22 -106.174 1120.57L135.743 878.679C147.395 867.027 147.395 848.148 135.743 836.52C124.091 824.868 105.212 824.868 93.5832 836.52L-148.333 1078.41C-159.985 1090.06 -159.985 1108.94 -148.333 1120.57Z" fill="white"/>
<path d="M-198.284 1001.84C-186.632 1013.49 -167.754 1013.49 -156.125 1001.84L85.7914 759.946C97.4435 748.294 97.4435 729.415 85.7914 717.786C74.1393 706.134 55.2605 706.134 43.632 717.786L-198.284 959.679C-209.913 971.331 -209.913 990.21 -198.284 1001.84Z" fill="white"/>
<path d="M-204.381 923.616C-192.729 935.269 -173.85 935.269 -162.222 923.616L79.6948 681.7C91.3469 670.048 91.3469 651.169 79.6948 639.541C68.0427 627.888 49.1639 627.888 37.5354 639.541L-204.381 881.457C-216.033 893.086 -216.033 911.964 -204.381 923.616Z" fill="white"/>
<path d="M-82.8693 970.766C-71.2172 982.418 -52.3385 982.418 -40.7099 970.766L201.206 728.873C212.859 717.221 212.859 698.342 201.206 686.714C189.554 675.062 170.676 675.062 159.047 686.714L-82.8693 928.607C-94.5214 940.259 -94.5214 959.138 -82.8693 970.766Z" fill="white"/>
</g>
</g>
<g opacity="0.2">
<path d="M-138.071 1281.32C-126.418 1292.98 -107.54 1292.98 -95.9112 1281.32L318.88 862.39C330.532 850.738 330.532 831.859 318.88 820.23C307.228 808.578 288.349 808.578 276.721 820.23L-138.071 1239.14C-149.699 1250.79 -149.699 1269.67 -138.071 1281.32Z" fill="white"/>
<path d="M-19.3605 1331.23C-7.70844 1342.88 11.1703 1342.88 22.7989 1331.23L437.59 912.294C449.242 900.642 449.242 881.763 437.59 870.134C425.938 858.482 407.059 858.482 395.431 870.134L-19.3605 1289.04C-31.0126 1300.7 -31.0126 1319.58 -19.3605 1331.23Z" fill="white"/>
<path d="M-25.4572 1252.98C-13.8051 1264.63 5.07363 1264.63 16.7022 1252.98L431.493 834.048C443.145 822.396 443.145 803.517 431.493 791.889C419.841 780.237 400.962 780.237 389.334 791.889L-25.4572 1210.82C-37.1093 1222.47 -37.1093 1241.33 -25.4572 1252.98Z" fill="white"/>
<path d="M96.0545 1300.16C107.707 1311.81 126.585 1311.81 138.214 1300.16L553.005 881.221C564.657 869.569 564.657 850.691 553.005 839.062C541.353 827.41 522.474 827.41 510.846 839.062L96.0545 1257.97C84.4024 1269.62 84.4024 1288.5 96.0545 1300.16Z" fill="white"/>
</g>
<g opacity="0.2">
<path d="M55.261 717.951L41.2785 731.933C35.1346 738.077 25.2009 738.077 19.0571 731.933C12.9133 725.79 12.9133 715.856 19.0571 709.712L33.0396 695.729C39.1835 689.586 49.1172 689.586 55.261 695.729C61.4048 701.873 61.4048 711.831 55.261 717.951Z" fill="white"/>
<path d="M-9.7317 738.525L-97.7698 826.563C-98.0287 826.822 -98.2876 827.104 -98.523 827.387C-103.584 833.224 -94.9215 841.016 -89.4603 835.555L-15.6166 761.711C-14.2748 760.369 -12.0857 760.181 -10.6733 761.452C-9.16675 762.794 -9.11967 765.101 -10.5321 766.513L-84.517 840.498C-89.9782 845.959 -82.1866 854.622 -76.3488 849.561C-76.0663 849.325 -75.8073 849.066 -75.5249 848.808L12.5132 760.769C18.657 754.626 18.657 744.692 12.5132 738.548C6.34584 732.404 -3.58786 732.404 -9.7317 738.525Z" fill="white"/>
<path d="M467.11 785.086L401.717 850.479C401.528 850.667 401.34 850.879 401.152 851.091C397.385 855.422 403.835 861.213 407.884 857.164L462.731 802.317C463.72 801.328 465.368 801.187 466.404 802.129C467.51 803.117 467.557 804.836 466.498 805.895L411.556 860.836C407.507 864.885 413.298 871.335 417.63 867.569C417.841 867.38 418.03 867.192 418.242 867.004L483.634 801.611C488.201 797.068 488.201 789.676 483.634 785.109C479.044 780.519 471.653 780.519 467.11 785.086Z" fill="white"/>
<path d="M133.2 713.196L28.8493 817.547C27.225 819.171 24.5651 819.171 22.9408 817.547C21.3166 815.922 21.3166 813.263 22.9408 811.638L127.292 707.287C128.916 705.663 131.576 705.663 133.2 707.287C134.848 708.911 134.848 711.571 133.2 713.196Z" fill="white"/>
<path d="M175.995 670.401L145.7 700.696C144.076 702.32 141.416 702.32 139.791 700.696C138.167 699.072 138.167 696.412 139.791 694.788L170.087 664.492C171.711 662.868 174.371 662.868 175.995 664.492C177.62 666.14 177.62 668.777 175.995 670.401Z" fill="white"/>
<path d="M323.801 737.912L248.921 812.792C243.695 818.017 235.245 818.017 230.019 812.792C224.793 807.566 224.793 799.115 230.019 793.889L304.898 719.01C310.124 713.784 318.575 713.784 323.801 719.01C329.026 724.236 329.026 732.71 323.801 737.912Z" fill="white"/>
<path d="M360.193 701.52L348.305 713.408C343.079 718.633 334.629 718.633 329.403 713.408C324.177 708.182 324.177 699.731 329.403 694.505L341.29 682.618C346.516 677.392 354.967 677.392 360.193 682.618C365.418 687.844 365.418 696.318 360.193 701.52Z" fill="white"/>
<path d="M149.702 649.757L105.236 694.223C102.128 697.33 97.1144 697.33 94.0072 694.223C90.9 691.116 90.9 686.102 94.0072 682.994L138.473 638.528C141.581 635.421 146.595 635.421 149.702 638.528C152.786 641.635 152.786 646.673 149.702 649.757Z" fill="white"/>
<path d="M171.311 628.147L164.249 635.209C161.142 638.316 156.128 638.316 153.021 635.209C149.914 632.102 149.914 627.088 153.021 623.981L160.083 616.919C163.19 613.812 168.204 613.812 171.311 616.919C174.395 620.026 174.395 625.064 171.311 628.147Z" fill="white"/>
<path d="M102.576 566.426L58.1096 610.893C55.0024 614 49.9884 614 46.8812 610.893C43.774 607.786 43.774 602.772 46.8812 599.664L91.3475 555.198C94.4547 552.091 99.4687 552.091 102.576 555.198C105.66 558.305 105.66 563.319 102.576 566.426Z" fill="white"/>
<path d="M124.185 544.817L117.123 551.879C114.016 554.986 109.002 554.986 105.895 551.879C102.788 548.772 102.788 543.758 105.895 540.651L112.957 533.589C116.064 530.481 121.078 530.481 124.185 533.589C127.269 536.696 127.269 541.71 124.185 544.817Z" fill="white"/>
<path d="M221.78 914.624L191.485 944.92C189.861 946.544 187.201 946.544 185.577 944.92C183.952 943.295 183.952 940.635 185.577 939.011L215.872 908.716C217.496 907.092 220.156 907.092 221.78 908.716C223.405 910.34 223.405 912.976 221.78 914.624Z" fill="white"/>
<path d="M382.72 934.868L278.369 1039.22C276.745 1040.84 274.085 1040.84 272.46 1039.22C270.836 1037.6 270.836 1034.94 272.46 1033.31L376.811 928.96C378.436 927.336 381.096 927.336 382.72 928.96C384.344 930.608 384.344 933.244 382.72 934.868Z" fill="white"/>
<path d="M425.515 892.097L395.219 922.392C393.595 924.017 390.935 924.017 389.311 922.392C387.687 920.768 387.687 918.108 389.311 916.484L419.606 886.188C421.231 884.564 423.891 884.564 425.515 886.188C427.139 887.813 427.139 890.449 425.515 892.097Z" fill="white"/>
<path d="M445.1 699.896L340.749 804.247C339.124 805.871 336.464 805.871 334.84 804.247C333.216 802.623 333.216 799.963 334.84 798.338L439.191 693.987C440.815 692.363 443.475 692.363 445.1 693.987C446.724 695.635 446.724 698.272 445.1 699.896Z" fill="white"/>
<path d="M247.132 726.684C246.92 726.896 246.614 727.037 246.261 727.037H232.984V740.314C232.984 740.996 232.443 741.538 231.76 741.538H218.484V754.814C218.484 755.497 217.943 756.038 217.26 756.038H203.984V769.314C203.984 769.997 203.442 770.538 202.76 770.538H189.483V783.815C189.483 784.497 188.942 785.039 188.259 785.039C187.577 785.039 187.035 784.497 187.035 783.815V769.314C187.035 768.632 187.577 768.09 188.259 768.09H201.536V754.814C201.536 754.131 202.077 753.59 202.76 753.59H216.036V740.314C216.036 739.631 216.577 739.09 217.26 739.09H230.536V725.813C230.536 725.131 231.078 724.589 231.76 724.589H246.261C246.943 724.589 247.485 725.131 247.485 725.813C247.485 726.143 247.344 726.449 247.132 726.684Z" fill="white"/>
<path d="M58.6978 846.383C58.2271 846.854 57.5444 847.16 56.8147 847.16H27.9787V875.996C27.9787 877.455 26.7782 878.656 25.3187 878.656H-3.5173V907.492C-3.5173 908.951 -4.71781 910.152 -6.17727 910.152H-34.9897V938.988C-34.9897 940.447 -36.1667 941.647 -37.6497 941.647H-66.4857V970.483C-66.4857 971.943 -67.6627 973.143 -69.1457 973.143C-70.6051 973.143 -71.8057 971.966 -71.8057 970.483V938.988C-71.8057 937.528 -70.6051 936.328 -69.1457 936.328H-40.3097V907.492C-40.3097 906.032 -39.1327 904.832 -37.6497 904.832H-8.81371V875.996C-8.81371 874.536 -7.63673 873.336 -6.15374 873.336H22.6823V844.5C22.6823 843.04 23.8593 841.84 25.3422 841.84H56.8382C58.2977 841.84 59.4982 843.017 59.4982 844.5C59.4746 845.229 59.1686 845.888 58.6978 846.383Z" fill="white"/>
<path d="M368.974 873.43C368.597 873.806 368.103 874.018 367.538 874.018H345.41V896.145C345.41 897.275 344.492 898.193 343.362 898.193H321.235V920.321C321.235 921.45 320.317 922.369 319.187 922.369H297.06V944.496C297.06 945.626 296.142 946.544 295.012 946.544H272.885V968.671C272.885 969.801 271.967 970.719 270.837 970.719C269.707 970.719 268.789 969.801 268.789 968.671V944.496C268.789 943.366 269.707 942.448 270.837 942.448H292.964V920.321C292.964 919.191 293.882 918.273 295.012 918.273H317.139V896.145C317.139 895.016 318.057 894.097 319.187 894.097H341.315V871.97C341.315 870.84 342.233 869.922 343.362 869.922H367.538C368.668 869.922 369.586 870.84 369.586 871.97C369.586 872.559 369.35 873.077 368.974 873.43Z" fill="white"/>
<path d="M48.2462 556.022C47.9167 556.351 47.4459 556.563 46.9515 556.563H26.99V576.525C26.99 577.537 26.1661 578.361 25.1539 578.361H5.1923V598.323C5.1923 599.335 4.36841 600.159 3.35621 600.159H-16.6054V620.12C-16.6054 621.132 -17.4293 621.956 -18.4415 621.956H-38.403V641.918C-38.403 642.93 -39.2269 643.754 -40.2391 643.754C-41.2513 643.754 -42.0752 642.93 -42.0752 641.918V620.12C-42.0752 619.108 -41.2513 618.284 -40.2391 618.284H-20.2775V598.323C-20.2775 597.31 -19.4537 596.486 -18.4415 596.486H1.52012V576.525C1.52012 575.513 2.34401 574.689 3.35621 574.689H23.3178V554.727C23.3178 553.715 24.1417 552.891 25.1539 552.891H46.9515C47.9637 552.891 48.7876 553.715 48.7876 554.727C48.7876 555.222 48.5758 555.692 48.2462 556.022Z" fill="white"/>
<path d="M167.804 827.763C158.953 827.763 151.727 820.56 151.727 811.709C151.727 802.858 158.93 795.631 167.804 795.631C176.655 795.631 183.858 802.834 183.858 811.709C183.858 820.56 176.655 827.763 167.804 827.763ZM167.804 799.562C161.119 799.562 155.658 805 155.658 811.709C155.658 818.394 161.095 823.855 167.804 823.855C174.489 823.855 179.951 818.418 179.951 811.709C179.951 805 174.489 799.562 167.804 799.562Z" fill="white"/>
<path d="M102.976 947.862C94.1251 947.862 86.8984 940.659 86.8984 931.808C86.8984 922.957 94.1016 915.73 102.976 915.73C111.85 915.73 119.03 922.934 119.03 931.808C119.054 940.659 111.827 947.862 102.976 947.862ZM102.976 919.662C96.2907 919.662 90.8295 925.099 90.8295 931.808C90.8295 938.493 96.2672 943.954 102.976 943.954C109.661 943.954 115.122 938.517 115.122 931.808C115.122 925.099 109.685 919.662 102.976 919.662Z" fill="white"/>
<path d="M268.977 883.199C260.126 883.199 252.923 875.996 252.923 867.145C252.923 858.294 260.126 851.067 268.977 851.067C277.828 851.067 285.054 858.27 285.054 867.145C285.031 875.996 277.828 883.199 268.977 883.199ZM268.977 854.998C262.292 854.998 256.83 860.436 256.83 867.145C256.83 873.83 262.268 879.291 268.977 879.291C275.662 879.291 281.123 873.853 281.123 867.145C281.123 860.436 275.662 854.998 268.977 854.998Z" fill="white"/>
<path d="M-6.1539 666.046C-15.0048 666.046 -22.2314 658.843 -22.2314 649.992C-22.2314 641.141 -15.0283 633.938 -6.1539 633.938C2.69699 633.938 9.9001 641.141 9.9001 649.992C9.9001 658.843 2.69699 666.046 -6.1539 666.046ZM-6.1539 637.846C-12.8391 637.846 -18.3003 643.283 -18.3003 649.992C-18.3003 656.677 -12.8627 662.138 -6.1539 662.138C0.531343 662.138 5.99254 656.701 5.99254 649.992C5.969 643.283 0.531343 637.846 -6.1539 637.846Z" fill="white"/>
</g>
</g>
<defs>
<linearGradient id="paint0_linear_283_3893" x1="312.781" y1="504.228" x2="163.177" y2="504.228" gradientUnits="userSpaceOnUse">
<stop stop-color="white"/>
<stop offset="1" stop-color="white"/>
</linearGradient>
<linearGradient id="paint1_linear_283_3893" x1="323.942" y1="504.228" x2="161.482" y2="504.228" gradientUnits="userSpaceOnUse">
<stop stop-color="white"/>
<stop offset="1" stop-color="white"/>
</linearGradient>
<linearGradient id="paint2_linear_283_3893" x1="326.716" y1="504.228" x2="158.541" y2="504.228" gradientUnits="userSpaceOnUse">
<stop stop-color="white"/>
<stop offset="1" stop-color="white"/>
</linearGradient>
<linearGradient id="paint3_linear_283_3893" x1="329.039" y1="504.228" x2="159.703" y2="504.228" gradientUnits="userSpaceOnUse">
<stop stop-color="white"/>
<stop offset="1" stop-color="white"/>
</linearGradient>
<linearGradient id="paint4_linear_283_3893" x1="327.413" y1="504.228" x2="161.77" y2="504.228" gradientUnits="userSpaceOnUse">
<stop stop-color="white"/>
<stop offset="1" stop-color="white"/>
</linearGradient>
<radialGradient id="paint5_radial_283_3893" cx="0" cy="0" r="1" gradientUnits="userSpaceOnUse" gradientTransform="translate(237.452 460.413) rotate(126.746) scale(61.9309)">
<stop stop-color="white"/>
<stop offset="1" stop-color="white"/>
</radialGradient>
<linearGradient id="paint6_linear_283_3893" x1="241.741" y1="428.879" x2="229.493" y2="445.285" gradientUnits="userSpaceOnUse">
<stop stop-color="white"/>
<stop offset="1" stop-color="white"/>
</linearGradient>
<clipPath id="clip0_283_3893">
<rect width="430" height="932" fill="white"/>
</clipPath>
</defs>
</svg>
