<svg width="28" height="28" viewBox="0 0 28 28" fill="none" xmlns="http://www.w3.org/2000/svg">
<rect width="28" height="28" rx="3" fill="#E7F7EF"/>
<path fill-rule="evenodd" clip-rule="evenodd" d="M17.0569 7.33301H10.9425C10.4121 7.33301 9.90334 7.54372 9.52827 7.91879L7.91879 9.52827C7.54372 9.90334 7.33301 10.412 7.33301 10.9425V11.9997V18.6663C7.33301 19.7709 8.22844 20.6663 9.33301 20.6663H18.6663C19.7709 20.6663 20.6663 19.7709 20.6663 18.6663V11.9997V10.9425C20.6663 10.4121 20.4556 9.90334 20.0806 9.52827L18.4711 7.91879C18.096 7.54372 17.5873 7.33301 17.0569 7.33301ZM18.6663 9.99967L17.5283 8.8616C17.4032 8.73658 17.2337 8.66634 17.0569 8.66634H10.9425C10.7657 8.66634 10.5961 8.73658 10.4711 8.8616L9.33301 9.99967H18.6663ZM8.66634 11.9997V18.6663C8.66634 19.0345 8.96482 19.333 9.33301 19.333H18.6663C19.0345 19.333 19.333 19.0345 19.333 18.6663V11.9997C19.333 11.6315 19.0345 11.333 18.6663 11.333H9.33301C8.96482 11.333 8.66634 11.6315 8.66634 11.9997ZM9.99967 17.333C9.99967 16.9648 10.2982 16.6663 10.6663 16.6663H11.9997C12.3679 16.6663 12.6663 16.9648 12.6663 17.333C12.6663 17.7012 12.3679 17.9997 11.9997 17.9997H10.6663C10.2982 17.9997 9.99967 17.7012 9.99967 17.333ZM10.6663 14.6663C10.2982 14.6663 9.99967 14.9648 9.99967 15.333C9.99967 15.7012 10.2982 15.9997 10.6663 15.9997H13.333C13.7012 15.9997 13.9997 15.7012 13.9997 15.333C13.9997 14.9648 13.7012 14.6663 13.333 14.6663H10.6663Z" fill="black"/>
</svg>
