<svg width="20" height="20" viewBox="0 0 20 20" fill="none" xmlns="http://www.w3.org/2000/svg">
<path d="M13.3476 16.2183L12.4053 16.4491C11.7896 16.5979 11.1531 16.7169 10.5188 16.7467L9.22814 16.7207C8.47358 16.6658 7.95712 16.5388 7.2248 16.3607L6.32032 16.1286C6.04284 16.0585 5.63114 16.053 5.55298 15.7098C5.53341 15.6239 5.55314 15.5036 5.5546 15.415L5.59704 13.9439C5.60296 13.83 5.622 13.7175 5.62546 13.6031L5.66603 12.5211L5.71267 10.6176C5.71597 10.4585 5.73866 10.3007 5.74653 10.1419L5.71876 8.94866C5.68433 8.51225 5.63814 8.10696 5.44722 7.70373C5.39931 7.73096 5.35599 7.76662 5.30929 7.79604C5.03298 7.97016 4.69843 8.0441 4.41017 8.1985C4.13234 8.34733 3.9063 8.6158 3.57894 8.65377L3.56458 8.65534C3.19194 8.69991 2.87058 8.32797 2.66323 8.06864C2.24032 7.53963 1.65318 6.47532 2.09866 5.80817C2.24427 5.59014 2.5365 5.46305 2.7555 5.33082L3.64591 4.79719L4.37384 4.28748C5.08622 3.74203 5.28958 3.58366 6.24036 3.43535L7.43319 3.26153C7.53919 3.24473 7.64345 3.23657 7.74913 3.21483C8.1654 3.16834 8.41524 3.46084 8.51521 3.83742C8.69544 4.51637 9.53241 4.85914 10.1957 4.80801C10.7392 4.7661 11.242 4.39289 11.466 3.90004C11.5067 3.81057 11.5193 3.71481 11.5541 3.62436C11.703 3.2369 12.0226 3.18649 12.3711 3.23985L13.7428 3.43315C14.6717 3.58035 14.9309 3.74465 15.6938 4.33586L17.1061 5.24856C17.4215 5.43213 17.8134 5.58897 17.9749 5.94215C18.2377 6.51725 17.8549 7.34325 17.531 7.81004C17.3003 8.14254 16.9695 8.57901 16.546 8.65119C16.2804 8.69649 16.0588 8.50276 15.8598 8.35846C15.4486 8.06037 14.9385 7.98471 14.5408 7.70328C14.3814 8.02629 14.2842 8.65006 14.2601 8.99973C14.244 9.23317 14.2473 9.46787 14.247 9.70174L14.2542 10.4005L14.2974 11.4839C14.299 11.5738 14.315 11.663 14.3178 11.7528L14.3783 13.9009L14.4169 14.6284C14.4201 14.7172 14.4379 14.8041 14.4426 14.8921L14.4457 15.2943C14.4506 15.574 14.5229 15.9112 14.1669 16.0147L13.3476 16.2183ZM7.83194 3.81301C7.81913 3.87061 7.83446 3.93358 7.84622 3.99053L7.89419 4.20547C7.89802 4.2245 7.90405 4.23918 7.91058 4.25735L7.93362 4.33239C7.95757 4.41563 8.00901 4.51594 8.04634 4.59426C8.50351 5.55338 9.39276 6.3593 10.5304 6.01352C11.1406 5.82809 11.5764 5.29772 11.8628 4.75366L12.0237 4.39155C12.0612 4.28418 12.182 3.9352 12.1505 3.82278L12.1326 3.81203C12.0855 3.85444 12.0677 3.98008 12.0439 4.04213C11.3295 5.90649 8.59148 5.84455 7.90948 3.93164C7.89581 3.89328 7.88497 3.84221 7.85737 3.81215L7.83194 3.81301ZM12.7501 3.88418C12.7161 4.06205 12.6936 4.23883 12.6417 4.41325C12.2577 5.70528 11.0416 6.93324 9.60569 6.6501L9.55066 6.63787C9.44491 6.61266 9.33968 6.59442 9.23652 6.55803C8.13538 6.16965 7.38507 5.02397 7.24591 3.89617L6.42511 4.00967C5.55025 4.13549 5.41862 4.22629 4.69607 4.77971L4.18614 5.14717L2.71745 6.04162C2.63757 6.08887 2.58929 6.10209 2.55677 6.19094L2.552 6.2034C2.35943 6.7252 3.12458 7.81215 3.51837 8.08254C3.69985 7.95694 3.86704 7.82119 4.06263 7.71559C4.37232 7.54834 4.70538 7.44069 5.01954 7.28555C5.13718 7.22746 5.23933 7.14881 5.35175 7.08231L5.59577 5.78258C5.62972 5.54848 5.67704 5.23133 5.99146 5.28196C6.08798 5.2975 6.16251 5.38285 6.19784 5.46953L6.20232 5.4801C6.25753 5.6235 6.16712 5.92303 6.14232 6.07057L5.92079 7.18209C5.90257 7.25666 5.91948 7.26598 5.94569 7.3384L6.22548 8.22817C6.30575 8.48789 6.32507 9.13485 6.32794 9.43143L6.31974 10.6994C6.31626 10.8043 6.2937 10.9061 6.29089 11.0116L6.27435 11.9101L6.21706 13.3296C6.1962 13.7264 6.19484 14.1426 6.16181 14.5302L6.13155 15.4768C6.18077 15.5098 6.23026 15.5099 6.28591 15.522L6.94837 15.685C7.64696 15.8622 8.33292 16.0371 9.0504 16.1111L9.26376 16.1386C10.0451 16.208 10.9529 16.1554 11.714 16.0061L13.7297 15.516C13.7778 15.5041 13.8273 15.4989 13.8723 15.4774L13.8011 13.9562L13.7927 13.4388L13.7158 11.9185L13.7101 11.0678C13.707 10.9051 13.683 10.7465 13.6758 10.5852L13.6706 9.64887C13.6716 8.86168 13.6983 8.22199 14.0015 7.46592L14.065 7.31815C14.0934 7.25553 14.0949 7.25071 14.0811 7.18471L13.8196 5.89285C13.6619 5.09539 14.2453 5.176 14.3466 5.50735L14.3516 5.52219C14.3922 5.64657 14.391 5.78957 14.4172 5.91717L14.6326 6.96908C14.6847 7.26543 15.2587 7.40096 15.5163 7.51225C15.8636 7.66231 16.1741 7.84942 16.4755 8.07735C16.9239 7.71778 17.6939 6.73391 17.4122 6.11543C17.2857 6.02606 17.1417 5.95518 17.0079 5.87621L15.2471 4.74065C15.1703 4.68506 15.1014 4.61832 15.0261 4.56051C14.5789 4.21696 14.2438 4.10457 13.7026 4.02559L13.2033 3.94461C13.0539 3.9245 12.8977 3.9136 12.7501 3.88418Z" fill="white"/>
<path d="M10.095 9.56082L9.55984 9.6709C9.52859 9.74623 9.51204 9.83365 9.49044 9.91248L9.22511 11.0941L9.04419 12.4593C8.99677 12.7766 8.42978 12.9682 8.47362 12.2221L8.65001 10.8695L8.86634 9.87459L8.59593 9.92588C8.32542 9.98309 8.05144 9.90598 8.15694 9.56242L8.16208 9.54627C8.23085 9.32424 8.52441 9.30951 8.71769 9.26137L10.7907 8.82721C10.978 8.79305 11.1634 8.74615 11.3528 8.72461C11.4841 8.73092 11.5757 8.78869 11.6327 8.91057L11.6515 8.95178C11.6678 8.99484 11.6655 9.0598 11.6462 9.1009L11.6409 9.1117C11.5618 9.28656 11.4209 9.4534 11.3102 9.61096L11.0404 10.0158C10.9748 10.1156 10.8958 10.2259 10.8544 10.3384C11.062 10.3027 11.303 10.5113 11.2162 10.7244L11.2105 10.7377C11.1125 10.9727 10.8242 10.9721 10.6085 10.9949C10.5611 11.1175 10.5274 11.2462 10.4921 11.3726L10.3103 12.1454C10.2898 12.2505 10.2889 12.3678 10.2638 12.4686C10.167 12.8581 9.7054 12.7671 9.68347 12.5164L9.68273 12.5053C9.66243 12.3194 9.69196 12.1265 9.72413 11.9437L9.90603 11.1357C9.79419 11.1617 9.60448 11.2108 9.49888 11.1521C9.32905 11.0578 9.3346 10.8419 9.42915 10.6934C9.50017 10.5818 9.66064 10.5698 9.77829 10.5411L10.0921 10.4646L10.6806 9.43732L10.095 9.56082Z" fill="white"/>
</svg>
